<?xml version="1.0" standalone="no"?>
<!DOCTYPE svg PUBLIC "-//W3C//DTD SVG 20010904//EN"
 "http://www.w3.org/TR/2001/REC-SVG-20010904/DTD/svg10.dtd">
<svg version="1.0" xmlns="http://www.w3.org/2000/svg"
 width="700.000000pt" height="700.000000pt" viewBox="0 0 700.000000 700.000000"
 preserveAspectRatio="xMidYMid meet">
<metadata>
Created by potrace 1.14, written by Peter Selinger 2001-2017
</metadata>
<g transform="translate(0.000000,700.000000) scale(0.100000,-0.100000)"
fill="#000000" stroke="none">
<path d="M3285 6985 c-27 -7 -63 -18 -79 -24 -42 -17 -157 -95 -181 -123 -124
-145 -178 -281 -178 -453 0 -284 187 -549 493 -701 37 -18 119 -51 181 -73
154 -53 207 -74 303 -123 44 -22 95 -48 111 -56 41 -21 198 -126 269 -181 387
-296 681 -753 795 -1233 10 -45 22 -101 25 -123 3 -22 8 -51 11 -65 14 -72 17
-122 20 -300 3 -218 -7 -325 -51 -525 -109 -500 -418 -973 -841 -1287 -194
-144 -391 -244 -663 -338 -128 -44 -255 -108 -334 -170 -38 -29 -162 -156
-187 -190 -40 -55 -97 -179 -115 -250 -20 -78 -22 -212 -4 -295 22 -106 90
-234 165 -311 38 -40 120 -96 170 -119 103 -45 250 -56 365 -25 19 5 46 11 60
13 14 3 78 19 143 37 486 130 937 361 1330 683 55 44 109 89 121 101 12 12 51
49 87 82 370 353 678 818 861 1299 58 152 139 433 162 560 19 101 26 144 30
175 3 19 10 70 15 113 29 217 32 585 6 792 -5 36 -15 119 -21 165 -31 230
-132 586 -240 840 -184 436 -423 790 -764 1130 -401 402 -832 671 -1375 857
-55 19 -107 36 -115 38 -8 2 -67 17 -130 34 -63 17 -131 33 -150 36 -19 3 -51
10 -71 14 -54 12 -167 10 -224 -4z"/>
<path d="M1135 6134 c-331 -57 -560 -314 -549 -614 6 -161 151 -570 300 -847
202 -378 423 -665 745 -968 70 -65 204 -177 258 -215 l34 -23 -39 -31 c-183
-146 -407 -375 -558 -571 -43 -55 -83 -107 -90 -116 -32 -40 -149 -224 -202
-319 -120 -213 -182 -351 -272 -600 -23 -65 -72 -234 -98 -340 -18 -76 -24
-217 -11 -278 61 -278 335 -483 647 -483 52 0 104 2 115 4 99 24 129 34 193
63 137 62 256 163 366 309 69 92 113 172 177 325 127 307 259 511 457 714 212
217 394 338 754 505 173 80 264 146 421 306 139 141 201 251 232 409 25 131 5
296 -51 424 -78 177 -255 355 -466 470 -32 17 -111 52 -175 78 -366 143 -620
314 -853 570 -157 173 -242 302 -360 549 -94 195 -175 317 -277 422 -204 206
-457 299 -698 257z"/>
</g>
</svg>
