<svg xmlns="http://www.w3.org/2000/svg" fill="none" viewBox="0 0 64 64"><g clip-path="url(#a)"><path fill="#fff" d="M0 0h64v64H0z"/><path fill="#000" d="M28 34.031a5.11 5.11 0 0 1 1.078.047c.334.052.677.078 1.031.078h.297c.042 0 .136-.005.282-.015l.453-.032c.166-.02.323-.036.468-.047.146-.02.235-.03.266-.03.042 0 .151.01.328.03.177.01.339.016.484.016.094 0 .172-.005.235-.016.073-.01.12-.02.14-.03.042 0 .1-.022.172-.063.084-.052.151-.104.203-.157v-.437c0-.52-.088-1.031-.265-1.531-.177-.51-.339-1.01-.484-1.5a.659.659 0 0 0-.016-.11 1.236 1.236 0 0 0-.047-.187 3.505 3.505 0 0 0-.031-.188.653.653 0 0 1-.016-.109.614.614 0 0 1-.062-.11 4.39 4.39 0 0 0-.11-.234 2.781 2.781 0 0 0-.125-.25 1.044 1.044 0 0 0-.078-.156 3.997 3.997 0 0 1-.14-.516 13.455 13.455 0 0 0-.141-.625 5.904 5.904 0 0 0-.188-.609 2.141 2.141 0 0 0-.234-.516l-.094-.093a2.785 2.785 0 0 0-.172-.188 3.61 3.61 0 0 0-.187-.203 1.085 1.085 0 0 0-.14-.125l-.141-.047a.37.37 0 0 0-.157-.047l-.03.016-.095.094c-.052.052-.078.093-.078.125-.083.25-.166.52-.25.812-.083.292-.177.594-.281.906a15.58 15.58 0 0 1-.313.907 9.234 9.234 0 0 1-.343.859l-.078.14-.11.22-.093.218a.514.514 0 0 0-.032.125c-.031.031-.073.13-.125.297-.052.156-.11.338-.172.547-.062.198-.125.4-.187.61a3.9 3.9 0 0 1-.14.468c-.074.219-.157.448-.25.688a2 2 0 0 0-.126.687v.172c.01.052.042.088.094.11ZM24.687 43h-.343c-.167.01-.344.016-.532.016h-.546c-.177.01-.302.015-.375.015-.021 0-.068.005-.141.016-.063.01-.135.02-.219.031-.073.01-.146.016-.218.016a.96.96 0 0 1-.125.015c-.084 0-.214-.005-.391-.015-.177 0-.37-.005-.578-.016-.198-.01-.386-.02-.563-.031a8.325 8.325 0 0 0-.406-.016c-.146-.041-.24-.093-.281-.156-.052-.073-.078-.193-.078-.36 0-.145.041-.26.125-.343a.661.661 0 0 1 .297-.188c.125-.041.27-.067.437-.078.156-.01.313-.015.469-.015h.453c.146-.01.276-.026.39-.047l.125-.125c.063-.063.094-.104.094-.125a.687.687 0 0 1 .125-.125c.073-.063.151-.125.235-.188.083-.073.156-.135.218-.187.073-.063.12-.104.141-.125.344-.302.588-.63.734-.985.157-.364.313-.744.47-1.14.332-.854.702-1.688 1.108-2.5a31.2 31.2 0 0 0 1.157-2.532.388.388 0 0 0 .047-.109l.062-.219a1.82 1.82 0 0 0 .078-.218.472.472 0 0 0 .047-.157c.01-.03.026-.088.047-.172.02-.083.047-.171.078-.265a6.22 6.22 0 0 0 .078-.281.512.512 0 0 1 .078-.157c0-.01.037-.062.11-.156.073-.104.11-.177.11-.219.02-.03.051-.088.093-.172l.125-.28.14-.282a1.5 1.5 0 0 1 .094-.188.562.562 0 0 0 .078-.187.562.562 0 0 1 .078-.188.366.366 0 0 0 .047-.078c.021-.041.042-.088.063-.14.02-.063.036-.115.047-.157a.358.358 0 0 0 .031-.109c.01-.031.026-.104.047-.219a8.227 8.227 0 0 0 .172-.734c.02-.115.041-.182.062-.203a.562.562 0 0 1 .11-.203c.073-.084.114-.136.125-.157 0-.02.015-.083.047-.187a.87.87 0 0 0 .062-.188l.094-.171c.052-.094.104-.193.156-.297l.14-.313c.053-.093.084-.156.094-.187a.362.362 0 0 0 .047-.094l.063-.188c.02-.072.041-.135.062-.187.021-.063.037-.104.047-.125a.284.284 0 0 0 .094-.125c.031-.063.057-.094.078-.094.01-.02.047-.073.11-.156a11.317 11.317 0 0 0 .563-.719c.01 0 .02-.026.03-.078a.892.892 0 0 1 .047-.156c.02-.063.037-.136.047-.219.052-.187.11-.354.172-.5.073-.156.11-.338.11-.547a.93.93 0 0 0-.048-.297 2.022 2.022 0 0 0-.11-.265c-.03-.084-.062-.167-.093-.25a.935.935 0 0 1-.047-.297v-.14a.46.46 0 0 1 .016-.11c.031-.042.094-.073.187-.094.104-.031.22-.057.344-.078l.375-.063a.708.708 0 0 0 .297-.109l.5-.39a1.16 1.16 0 0 1 .578-.22c.167-.02.328.022.484.126.167.104.292.218.376.343.218.47.38.954.484 1.454.114.49.26.968.437 1.437.01 0 .026.026.047.078.032.042.063.089.094.14.031.053.057.105.078.157l.031.078c0 .042.01.13.032.266.03.135.062.276.093.422.032.146.058.286.078.422l.063.25a18.28 18.28 0 0 0 .11.593c.03.115.057.22.078.313a.857.857 0 0 1 .046.172c.01.052.052.177.125.375.073.187.146.396.22.625.082.229.16.442.233.64.073.198.126.318.157.36v.078c.01.041.015.088.015.14l.032.157c.01.041.02.078.03.11.011.02.022.062.032.124.01.052.021.115.031.188l.032.187c.01.052.015.084.015.094 0 .01.01.041.032.094.03.041.062.093.093.156l.094.156c.031.052.052.078.063.078 0 .021.01.078.03.172.022.094.042.198.063.313a3.439 3.439 0 0 1 .11.5c.01.01.026.041.047.093.02.042.041.089.062.141a.612.612 0 0 1 .078.14c.021.042.031.068.031.079.01.02.026.067.047.14a3.002 3.002 0 0 1 .125.563c.136.667.323 1.333.563 2 .24.656.448 1.312.625 1.969 0 .02.005.067.015.14.01.063.021.136.032.219l.03.234c.011.073.022.12.032.141.01.02.031.083.063.188.041.104.083.218.125.343.041.115.078.23.109.344.042.104.068.167.078.188.052.208.104.442.156.703.052.25.125.494.22.734.093.23.218.438.374.625.167.188.386.318.656.39.115.032.22.053.313.063h.203a.77.77 0 0 1 .094.016c.052 0 .11.005.172.015l.187.032c.063.01.11.02.14.03a1.5 1.5 0 0 0 .266.095c.125.03.245.073.36.125.125.041.229.104.312.187.094.073.14.172.14.297 0 .135-.051.24-.155.313a.87.87 0 0 1-.344.156 1.28 1.28 0 0 1-.406.062c-.136.01-.25.016-.344.016-.677 0-1.35-.031-2.016-.094a21.084 21.084 0 0 0-2-.094h-2.031a2.44 2.44 0 0 1-.64.157 5.008 5.008 0 0 1-.938.015c-.136 0-.276-.015-.422-.047a.983.983 0 0 1-.36-.125.294.294 0 0 1-.156-.265v-.032c.073-.145.193-.276.36-.39.166-.125.317-.214.453-.266.042 0 .146-.015.312-.047.177-.03.365-.062.563-.093.208-.042.4-.078.578-.11.177-.041.286-.062.328-.062a.624.624 0 0 0 .297-.157.775.775 0 0 0 .156-.265.931.931 0 0 0 .047-.297c.01-.104.016-.208.016-.313v-.437a4.853 4.853 0 0 0-.11-.547c-.062-.27-.14-.573-.234-.906a19.03 19.03 0 0 0-.297-1.078c-.114-.375-.229-.719-.344-1.032a6.736 6.736 0 0 0-.312-.812c-.104-.23-.193-.365-.266-.406a1.37 1.37 0 0 0-.453-.172 2.659 2.659 0 0 0-.406-.031l-.406-.032a1.635 1.635 0 0 1-.438-.14c-.073 0-.219.01-.437.031-.209.02-.438.042-.688.063-.24.01-.469.026-.687.046-.22.01-.375.016-.47.016-.176 0-.38-.005-.608-.016-.22-.01-.448-.015-.688-.015-.354 0-.693.047-1.016.14-.323.084-.578.282-.765.594-.01.063-.032.172-.063.328-.02.157-.052.323-.093.5l-.125.516a1.46 1.46 0 0 1-.094.328 8.112 8.112 0 0 1-.219.656l-.25.625a6.496 6.496 0 0 0-.188.64 2.823 2.823 0 0 0-.078.657v.531a.6.6 0 0 0 .141.282c.083.073.177.14.281.203.104.052.203.099.297.14.104.042.188.078.25.11.167.062.375.11.625.14.25.032.49.078.719.141.24.052.443.146.61.281.166.125.25.323.25.594 0 .177-.09.297-.266.36a4.875 4.875 0 0 1-.5.187 6.569 6.569 0 0 0-1.328-.25A16.065 16.065 0 0 0 25.578 43h-.89Z"/><path stroke="#D65A69" d="M39.5 43.5C36 59 55 57.9 49 43.5S26 32.5 15 29c-8.833-1.5-18.815-9.933-6-12 15.5-2.5 4-18 28-10 13.368 4.456 14 5.5 18 15.5 1.5 11-18.1 23.7-30.5 28.5C9 57-29 42 13 24.5 46.6 10.5 66.667 1 72.5-2"/></g><defs><clipPath id="a"><path fill="#fff" d="M0 0h64v64H0z"/></clipPath></defs></svg>