<svg width="48" height="48" viewBox="0 0 48 48" fill="none" xmlns="http://www.w3.org/2000/svg">
  <style>
    @media (prefers-color-scheme: dark) {
      #logo-path {
        fill: #fff;
      }
    }  
  </style>
  <path id="logo-path" fill-rule="evenodd" clip-rule="evenodd" d="M24.0531 47.9331C21.5726 48.405 19.5079 46.3129 19.5079 43.7858C19.5079 41.2587 21.5997 39.2759 24.0112 38.527C26.346 37.8019 28.4937 36.517 30.2541 34.7552C33.1041 31.9027 34.7053 28.034 34.7053 24C34.7053 19.966 33.1041 16.0973 30.2541 13.2448C28.4937 11.483 26.346 10.1981 24.0112 9.47302C21.5997 8.72412 19.5079 6.7413 19.5079 4.21421C19.5079 1.68712 21.5726 -0.405006 24.0531 0.0669033C28.818 0.97338 33.2411 3.29231 36.7197 6.77383C41.2845 11.3425 43.8491 17.5389 43.8491 24C43.8491 30.4611 41.2845 36.6575 36.7197 41.2262C33.2411 44.7077 28.818 47.0266 24.0531 47.9331ZM27.6216 24.049C27.6216 25.494 26.9965 26.8084 26.0121 27.6448C25.1713 28.6609 24.0083 29.4689 22.7586 29.9822C20.9366 30.7306 19.2703 31.8503 17.8744 33.2898C16.4784 34.7294 15.4098 36.4297 14.7169 38.2748C13.7561 40.8329 11.5817 43.0732 8.85158 43.0255C6.12145 42.9778 3.89676 40.7007 4.49422 38.0341C5.46974 33.6802 7.62959 29.6447 10.7787 26.3973C11.531 25.6216 12.3299 24.901 13.1691 24.2383C12.4033 23.6728 11.6678 23.0601 10.9671 22.4022C7.66641 19.3029 5.31897 15.3685 4.14203 11.0604C3.42189 8.42429 5.5389 6.04667 8.26389 5.87256C10.9889 5.69845 13.2646 7.8356 14.3426 10.3464C15.1211 12.1597 16.2691 13.8106 17.7327 15.1849C19.1963 16.5592 20.9155 17.6006 22.7733 18.2627C25.3456 19.1794 27.6216 21.3162 27.6216 24.049Z" fill="black"/>
</svg>
