<svg xmlns="http://www.w3.org/2000/svg" fill="none" viewBox="0 0 199 68"><g clip-path="url(#a)"><path fill="currentColor" d="M12.337 38.093c.148-.008.283-.002.404.018.125.02.254.03.387.03h.111c.016 0 .051-.003.106-.007l.17-.011c.062-.008.12-.014.175-.018.055-.008.088-.012.1-.012.016 0 .057.004.123.012.066.004.127.006.182.006a.55.55 0 0 0 .14-.018.144.144 0 0 0 .065-.023.435.435 0 0 0 .076-.059v-.164c0-.195-.033-.387-.1-.574a13.188 13.188 0 0 1-.181-.563 1.314 1.314 0 0 0-.035-.182.238.238 0 0 1-.006-.04.23.23 0 0 1-.024-.041 1.63 1.63 0 0 0-.04-.088 1.05 1.05 0 0 0-.048-.094.408.408 0 0 0-.029-.059 1.499 1.499 0 0 1-.053-.193 5.028 5.028 0 0 0-.052-.234 2.216 2.216 0 0 0-.07-.229.802.802 0 0 0-.089-.193l-.035-.035a1.055 1.055 0 0 0-.064-.07 1.352 1.352 0 0 0-.123-.124l-.053-.017a.139.139 0 0 0-.059-.018l-.011.006-.036.035c-.019.02-.029.035-.029.047a7.38 7.38 0 0 0-.094.305c-.03.11-.066.223-.105.34a5.793 5.793 0 0 1-.117.34 3.44 3.44 0 0 1-.13.322 1.33 1.33 0 0 1-.028.053l-.041.082-.036.082a.189.189 0 0 0-.011.046.357.357 0 0 0-.047.112c-.02.058-.041.127-.065.205a16.195 16.195 0 0 0-.123.404 5.416 5.416 0 0 1-.093.258.75.75 0 0 0-.047.258v.064c.004.02.015.033.035.041Zm-1.242 3.363h-.13a3.204 3.204 0 0 1-.198.006h-.205a2.763 2.763 0 0 1-.141.006.51.51 0 0 0-.053.006 2.04 2.04 0 0 1-.21.024c-.032 0-.08-.002-.147-.006-.067 0-.139-.002-.217-.006a34.37 34.37 0 0 1-.211-.012 3.128 3.128 0 0 0-.152-.006c-.055-.015-.09-.035-.106-.058-.02-.028-.03-.073-.03-.135 0-.055.017-.098.048-.129a.248.248 0 0 1 .111-.07.645.645 0 0 1 .164-.03c.059-.004.117-.005.176-.005h.17c.054-.004.103-.01.146-.018l.047-.047c.024-.023.035-.039.035-.047a.256.256 0 0 1 .047-.047c.028-.023.057-.047.088-.07l.082-.07.053-.047c.129-.114.22-.236.275-.37.059-.136.117-.279.176-.427.125-.32.264-.633.416-.938a11.712 11.712 0 0 0 .451-.99l.024-.082a.69.69 0 0 0 .029-.082.177.177 0 0 0 .018-.058c.003-.012.01-.034.017-.065.008-.031.018-.064.03-.1l.029-.105a.195.195 0 0 1 .029-.059c0-.003.014-.023.041-.058.027-.04.041-.067.041-.082a.682.682 0 0 0 .035-.065l.047-.105.053-.106a.564.564 0 0 1 .035-.07.211.211 0 0 0 .03-.07.21.21 0 0 1 .029-.07.702.702 0 0 0 .088-.264l.035-.135.029-.14c.008-.044.016-.069.023-.077a.209.209 0 0 1 .041-.076.468.468 0 0 0 .047-.059c0-.007.006-.03.018-.07a.323.323 0 0 0 .023-.07l.035-.065a2.836 2.836 0 0 0 .112-.228.553.553 0 0 0 .035-.07.136.136 0 0 0 .018-.036l.023-.07a.728.728 0 0 1 .023-.07.43.43 0 0 1 .018-.047.106.106 0 0 0 .035-.047c.012-.023.022-.035.03-.035a.598.598 0 0 1 .04-.059 4.551 4.551 0 0 0 .211-.27c.004 0 .008-.009.012-.029a.333.333 0 0 1 .018-.058.423.423 0 0 0 .017-.082c.02-.07.041-.133.065-.188a.48.48 0 0 0 .023-.316.766.766 0 0 0-.04-.1c-.013-.03-.024-.062-.036-.093a.35.35 0 0 1-.018-.112v-.053c0-.011.002-.025.006-.04.012-.016.035-.028.07-.036.04-.011.083-.021.13-.029l.14-.023a.266.266 0 0 0 .111-.041l.188-.147a.435.435 0 0 1 .217-.082.261.261 0 0 1 .181.047c.063.039.11.082.141.129.082.176.143.357.182.545.043.183.097.363.164.539.004 0 .01.01.017.03a.583.583 0 0 1 .065.11l.011.03c0 .015.004.049.012.1.012.05.024.103.035.158.012.054.022.107.03.158l.023.093a7.458 7.458 0 0 0 .041.223l.03.117a1.338 1.338 0 0 0 .064.205c.027.07.054.149.082.235l.088.24c.027.074.047.12.058.135v.03a.218.218 0 0 1 .006.052l.012.058a.55.55 0 0 0 .012.041 1.33 1.33 0 0 1 .023.117l.012.07a.29.29 0 0 1 .006.036c0 .004.003.016.011.035a.374.374 0 0 1 .036.059l.035.058c.011.02.02.03.023.03 0 .008.004.029.012.064s.015.074.023.117a1.247 1.247 0 0 1 .041.188.7.7 0 0 1 .041.088.23.23 0 0 1 .03.053 1.132 1.132 0 0 1 .076.293c.05.25.12.5.21.75.09.246.169.492.235.738l.006.052.012.082.011.088a.216.216 0 0 0 .012.053.659.659 0 0 1 .023.07 2.319 2.319 0 0 1 .088.258c.016.04.026.063.03.07.02.079.039.167.058.264.02.094.047.186.082.276a.894.894 0 0 0 .14.234.49.49 0 0 0 .247.147c.043.011.082.019.117.023h.076a.3.3 0 0 1 .036.006c.02 0 .04.002.064.006l.07.011a.376.376 0 0 1 .053.012.57.57 0 0 0 .1.035.785.785 0 0 1 .134.047c.047.016.086.04.118.07a.134.134 0 0 1 .052.112c0 .05-.02.09-.058.117a.329.329 0 0 1-.13.059.48.48 0 0 1-.152.023 1.73 1.73 0 0 1-.128.006c-.254 0-.506-.012-.756-.035a7.92 7.92 0 0 0-.75-.035h-.762a.912.912 0 0 1-.24.058 1.884 1.884 0 0 1-.51-.012.366.366 0 0 1-.135-.046.11.11 0 0 1-.058-.1v-.012a.395.395 0 0 1 .134-.146.734.734 0 0 1 .17-.1.903.903 0 0 0 .117-.017l.211-.036c.079-.015.15-.029.217-.04a.8.8 0 0 1 .123-.024.233.233 0 0 0 .112-.059.289.289 0 0 0 .058-.1.347.347 0 0 0 .018-.11 1.18 1.18 0 0 0 .006-.118v-.164a1.815 1.815 0 0 0-.041-.205 7.627 7.627 0 0 0-.088-.34 7.194 7.194 0 0 0-.24-.79 2.524 2.524 0 0 0-.118-.306c-.039-.085-.072-.136-.1-.152a.513.513 0 0 0-.17-.064 1.001 1.001 0 0 0-.152-.012l-.152-.012a.613.613 0 0 1-.164-.052 2.17 2.17 0 0 0-.164.011l-.258.024c-.09.004-.176.01-.258.017-.082.004-.14.006-.175.006-.067 0-.143-.002-.229-.006a5.434 5.434 0 0 0-.258-.006c-.133 0-.26.018-.38.053a.462.462 0 0 0-.288.223 4.505 4.505 0 0 1-.023.123c-.008.058-.02.121-.035.187l-.047.194a.547.547 0 0 1-.035.123c-.024.082-.051.164-.082.246l-.094.234c-.027.078-.05.158-.07.24a1.06 1.06 0 0 0-.03.247v.199c.008.039.026.074.053.105a.731.731 0 0 0 .217.13c.039.015.07.028.094.04.062.024.14.041.234.053.094.012.183.03.27.053.09.02.165.054.228.105.063.047.094.121.094.223 0 .066-.034.111-.1.135-.062.027-.125.05-.187.07a2.462 2.462 0 0 0-.498-.094 6.045 6.045 0 0 0-.463-.017h-.334ZM18.143 38.662v-.147a6.504 6.504 0 0 0 .041-.27c.012-.062.02-.12.024-.175.008-.059.012-.1.012-.123l.029-.076c.012-.036.023-.057.035-.065.004-.012.016-.039.035-.082.02-.047.041-.096.065-.146.027-.051.05-.098.07-.141a.405.405 0 0 1 .053-.088.423.423 0 0 0 .017-.047l.024-.082a1.11 1.11 0 0 1 .023-.082l.018-.058a.394.394 0 0 1 .03-.059.199.199 0 0 1 .023-.03.105.105 0 0 1 .029-.029.412.412 0 0 0 .059-.058c.167-.196.337-.362.51-.498a2.623 2.623 0 0 1 1.16-.516c.218-.039.456-.059.714-.059.016 0 .037.002.065.006.03 0 .06.002.088.006.027 0 .05.002.07.006h.04c0 .004.01.01.03.018a.68.68 0 0 1 .147.04c.023.009.039.012.047.012.156.055.294.116.416.182.12.066.234.168.34.305a.324.324 0 0 1 .046.088c.02.047.036.08.047.1v.04c0 .203-.04.36-.123.469-.082.105-.23.158-.445.158a.343.343 0 0 1-.211-.07 1.114 1.114 0 0 1-.176-.182 2.561 2.561 0 0 1-.14-.217 2.017 2.017 0 0 0-.124-.199c0-.008-.005-.015-.017-.023l-.03-.03a.702.702 0 0 0-.076-.058 2.145 2.145 0 0 0-.123-.088 14.852 14.852 0 0 0-.123-.1l-.088-.07a2.014 2.014 0 0 1-.199-.017.253.253 0 0 0-.047.005.394.394 0 0 0-.064.006.218.218 0 0 0-.053.006h-.03a.514.514 0 0 0-.24.135 2.08 2.08 0 0 1-.351.287.308.308 0 0 0-.117.129 2.644 2.644 0 0 0-.281.58c-.04.113-.073.226-.1.34a1.39 1.39 0 0 0-.035.287v.059c.004.05.011.134.023.252a28.251 28.251 0 0 1 .088.697l.03.193a2.201 2.201 0 0 0 .404 1.037 1.574 1.574 0 0 0 .404.38c.082.048.164.087.246.118a.765.765 0 0 0 .264.047c.101 0 .213-.016.334-.047a6 6 0 0 0 .328-.094 2.14 2.14 0 0 0 .193-.058c.04-.016.074-.03.106-.041a.236.236 0 0 0 .053-.024.79.79 0 0 0 .134-.1l.123-.122a.795.795 0 0 1 .135-.1.34.34 0 0 1 .164-.04c.031 0 .05.009.059.028a.116.116 0 0 1 .011.053.422.422 0 0 1-.082.246l-.129.2c-.23.312-.49.535-.779.668-.285.128-.619.193-1.002.193h-.287a.264.264 0 0 1-.053-.012.549.549 0 0 1-.093-.023 1.374 1.374 0 0 1-.1-.03.59.59 0 0 1-.158-.064.315.315 0 0 0-.076-.059.374.374 0 0 0-.065-.047 2.303 2.303 0 0 0-.246-.058.495.495 0 0 1-.252-.123 2.045 2.045 0 0 1-.44-.498 3.063 3.063 0 0 1-.275-.61 3.76 3.76 0 0 1-.14-.662 6.727 6.727 0 0 1-.035-.68ZM22.872 41.363v-.035a5.64 5.64 0 0 1 .105-.159c.043-.066.092-.101.147-.105.02 0 .053-.002.1-.006.05-.008.101-.014.152-.017.055-.008.104-.014.146-.018a.704.704 0 0 1 .1-.012c.012 0 .025-.006.041-.017a.73.73 0 0 0 .111-.112.17.17 0 0 0 .03-.047c.004 0 .008-.013.011-.04a4.96 4.96 0 0 0 .03-.27c.011-.152.017-.305.017-.457.004-.152.006-.305.006-.457 0-.102-.002-.203-.006-.305a8.4 8.4 0 0 1-.006-.31c0-.282.006-.561.018-.838a6.38 6.38 0 0 1 .106-.85l.046-2.818a.415.415 0 0 0-.029-.13 1.034 1.034 0 0 0-.076-.163.943.943 0 0 0-.1-.153c-.035-.043-.066-.068-.094-.076a.373.373 0 0 0-.058-.012 4.96 4.96 0 0 0-.088-.011.87.87 0 0 0-.088-.018.215.215 0 0 1-.053-.011 1.174 1.174 0 0 1-.193-.064.73.73 0 0 1-.088-.065.112.112 0 0 1-.035-.082c0-.075.027-.131.082-.17a.617.617 0 0 1 .188-.1c.074-.023.148-.041.222-.053a.81.81 0 0 0 .188-.047c.039-.015.107-.044.205-.087l.305-.147a21.573 21.573 0 0 1 .515-.252.296.296 0 0 1 .147.053.23.23 0 0 1 .076.105c.02.043.031.092.035.147.004.054.006.11.006.164v.017a2.014 2.014 0 0 1-.024.223 1.378 1.378 0 0 1-.035.223v.135c.004.05.008.128.012.234a47.563 47.563 0 0 1 .023.773l.012.416c.004.133.006.252.006.358.004.105.006.183.006.234a.779.779 0 0 1 .012.164v.486a.7.7 0 0 1-.012.153c.012.02.025.031.04.035.02.004.044.006.071.006.031 0 .076-.026.135-.076.062-.051.129-.11.2-.176.07-.07.138-.137.204-.2a1.32 1.32 0 0 1 .158-.14.191.191 0 0 0 .047-.012l.07-.023a.742.742 0 0 0 .118-.041c.07-.04.125-.07.164-.094a.498.498 0 0 1 .123-.058.618.618 0 0 1 .129-.036 2.4 2.4 0 0 1 .246-.04c.023-.005.047-.008.07-.012a.702.702 0 0 1 .123-.024c.184 0 .342.02.475.059a1.278 1.278 0 0 1 .451.24.966.966 0 0 1 .082.053c.031.02.059.039.082.058.027.02.041.032.041.036a.279.279 0 0 1 .088.11 2.66 2.66 0 0 1 .182.387c.027.063.047.106.058.13v.527a.413.413 0 0 1-.017.07c-.008.04-.016.063-.024.07v.094c.035.223.059.451.07.686.012.23.018.46.018.691v.27a4.817 4.817 0 0 1-.023.486 4.143 4.143 0 0 1-.024.275.41.41 0 0 1-.017.07c-.008.036-.016.057-.024.065v.24c0 .09.006.182.018.276.015.09.053.158.111.205.043-.008.086-.014.129-.018a.7.7 0 0 1 .457.065c.098.047.146.138.146.275v.07c0 .028-.003.041-.011.041 0 .02-.014.04-.041.06a.114.114 0 0 1-.059.023h-2.543c-.02 0-.031-.016-.035-.047a.793.793 0 0 1-.006-.082c0-.043.012-.084.035-.123a.605.605 0 0 1 .094-.106h.188c.062-.004.12-.012.175-.023a.351.351 0 0 0 .141-.077.294.294 0 0 0 .076-.164l.006-.076c.008-.043.014-.09.018-.14.007-.051.013-.098.017-.141a.442.442 0 0 1 .018-.076c0-.008.004-.031.012-.07a.439.439 0 0 0 .017-.083v-.04l.012-.077a.71.71 0 0 0 .006-.088.642.642 0 0 0 .005-.076.642.642 0 0 0-.005-.076.757.757 0 0 0-.006-.094l-.012-.117a.854.854 0 0 1-.03-.129V39.347a.521.521 0 0 1 .03-.111c.004-.04.008-.106.012-.2a6.73 6.73 0 0 0 .017-.292l.012-.3c.004-.093.008-.16.012-.198a4.413 4.413 0 0 0-.023-.363 3.364 3.364 0 0 0-.018-.212 1.969 1.969 0 0 0-.012-.14.122.122 0 0 1-.064-.082.54.54 0 0 0-.024-.088 1.42 1.42 0 0 0-.129-.246.565.565 0 0 0-.152-.153.688.688 0 0 0-.2-.105 2.896 2.896 0 0 0-.34-.1.262.262 0 0 0-.064-.023c-.007-.008-.03-.012-.07-.012h-.082c-.098 0-.197.008-.299.024-.101.015-.199.04-.293.076a1.137 1.137 0 0 0-.263.14.95.95 0 0 0-.217.217.414.414 0 0 0-.035.111c-.012.051-.026.104-.041.159a1.433 1.433 0 0 1-.041.152c-.016.043-.032.068-.047.076l-.088.381v2.883c.043.02.082.04.117.064s.07.045.105.065h.627c.016 0 .03.011.042.035.015.02.027.043.035.07a.616.616 0 0 1 .023.14c0 .056-.025.102-.076.142a.259.259 0 0 1-.147.052h-.058a.602.602 0 0 1-.223-.041c-.023-.004-.037-.008-.04-.011h-.598c-.235 0-.471.007-.71.023-.234.02-.47.03-.709.03h-.304a.662.662 0 0 1-.07-.065.646.646 0 0 1-.065-.07v-.012ZM30.401 39.652c0-.403.01-.8.03-1.196.02-.394.029-.789.029-1.183 0-.121-.024-.211-.07-.27a.336.336 0 0 0-.176-.123.778.778 0 0 0-.246-.035c-.09 0-.184-.004-.282-.011a1.195 1.195 0 0 1-.058-.065c-.02-.027-.03-.049-.03-.064 0-.02.008-.041.024-.065.02-.027.031-.04.035-.04a2.47 2.47 0 0 0 .111-.1l.176-.176a6.49 6.49 0 0 0 .17-.176c.055-.055.092-.094.112-.117a.257.257 0 0 0 .046-.047c.02-.028.042-.055.065-.082a.766.766 0 0 1 .07-.082l.053-.059a4.6 4.6 0 0 0 .082-.117l.164-.217c.063-.086.129-.174.2-.263a5.445 5.445 0 0 1 .392-.446c.055-.05.094-.076.117-.076h.018a.246.246 0 0 1 .134.188.63.63 0 0 1 .024.129.888.888 0 0 0 .023.134v.018c0 .105-.01.21-.03.316a2.283 2.283 0 0 0-.023.334v.047c0 .016.003.033.006.053 0 .02.002.043.006.07l.094.1h.129c.18 0 .36-.016.539-.047.121-.031.242-.07.363-.117a.99.99 0 0 1 .375-.076c.117 0 .196.03.235.093.039.063.058.143.058.24a.538.538 0 0 1-.228.445.968.968 0 0 1-.229.118 1 1 0 0 1-.258.047.216.216 0 0 1-.052.012.713.713 0 0 0-.088.005h-.135a.133.133 0 0 1-.053.024c-.023.008-.05.016-.082.023a2.44 2.44 0 0 0-.088.024.215.215 0 0 0-.052.011h-.487l-.088.03a7.922 7.922 0 0 0-.017.299 5.031 5.031 0 0 0-.018.257v.217a1.173 1.173 0 0 0-.018.17c0 .098.008.193.024.287.02.094.03.192.03.293 0 .176-.009.356-.024.54-.012.179-.018.36-.018.544v.135c0 .047.002.094.006.14a.19.19 0 0 0-.052.1.913.913 0 0 0-.006.111c0 .079.011.15.035.217.027.063.062.13.105.2.082.136.172.23.27.28.097.048.23.071.398.071.102 0 .215-.021.34-.064.129-.047.24-.086.334-.117a.41.41 0 0 0 .07-.018c.04-.016.082-.031.13-.047.046-.02.09-.035.128-.047l.076-.03h.047c.031 0 .055.013.07.036a.155.155 0 0 1 .024.088c0 .11-.031.203-.094.281a.864.864 0 0 1-.217.194c-.086.054-.18.101-.28.14-.099.04-.184.076-.259.111a3.877 3.877 0 0 0-.146.053 4.025 4.025 0 0 0-.328.117.865.865 0 0 1-.34.065c-.078 0-.166-.008-.264-.024a4.878 4.878 0 0 1-.293-.058 3.54 3.54 0 0 1-.287-.094 1.13 1.13 0 0 1-.281-.17l-.059-.059a.39.39 0 0 0-.047-.058c-.011-.016-.017-.027-.017-.035l-.14-.533v-.1c0-.063-.003-.137-.007-.223v-.48ZM34.76 39.845a7.501 7.501 0 0 1-.052-.21 3.096 3.096 0 0 1-.035-.551v-1.325a.364.364 0 0 1-.018-.093 1.173 1.173 0 0 1-.006-.094.858.858 0 0 1-.011-.112v-.474a.13.13 0 0 0-.018-.035.974.974 0 0 0-.03-.077.577.577 0 0 0-.029-.087.46.46 0 0 1-.023-.065c-.016-.047-.057-.084-.123-.111a1.321 1.321 0 0 0-.21-.082 5.378 5.378 0 0 0-.235-.065 1.096 1.096 0 0 1-.182-.058c-.047-.02-.074-.05-.082-.088a.57.57 0 0 1-.012-.111c0-.008.008-.028.024-.06a.154.154 0 0 1 .03-.04c.007-.02.032-.041.075-.065a.394.394 0 0 1 .088-.046h.369a.516.516 0 0 0 .088-.012h.03l.058-.012a.265.265 0 0 1 .053-.006.179.179 0 0 1 .03-.006h.274a.619.619 0 0 0 .065-.005l.105-.012.106-.012a.893.893 0 0 0 .07-.017.16.16 0 0 0 .035-.006.3.3 0 0 1 .059-.006.763.763 0 0 0 .059-.012.287.287 0 0 1 .035-.006.671.671 0 0 1 .45.223v.2c0 .3-.017.597-.052.89a7.312 7.312 0 0 0-.053.884c0 .125.008.249.024.37.02.12.03.248.03.38 0 .063-.01.127-.03.194a.82.82 0 0 0-.024.2c0 .187.014.364.041.532.032.168.086.315.164.44a.862.862 0 0 0 .317.299c.137.074.31.11.521.11a1.772 1.772 0 0 0 .492-.07c.087-.023.167-.054.24-.093a.866.866 0 0 0 .206-.14c.097-.102.172-.2.222-.294.055-.093.094-.191.118-.293a1.52 1.52 0 0 0 .047-.328c.003-.117.005-.248.005-.392 0-.036.002-.08.006-.135.004-.055.006-.11.006-.164-.012-.11-.021-.2-.03-.27l-.01-.222a31.526 31.526 0 0 1-.013-.258v-1.488c0-.012-.011-.024-.035-.036a.277.277 0 0 0-.076-.04.347.347 0 0 0-.088-.036.228.228 0 0 0-.076-.017c-.004-.008-.037-.012-.1-.012a2.83 2.83 0 0 0-.175.006 3.739 3.739 0 0 1-.106.006.81.81 0 0 1-.146-.03 1.222 1.222 0 0 1-.153-.058.47.47 0 0 1-.123-.088.18.18 0 0 1-.047-.123v-.035a.238.238 0 0 1 .03-.036.092.092 0 0 0 .017-.023.094.094 0 0 0 .018-.023.628.628 0 0 0 .064-.006.956.956 0 0 1 .106-.006l.1-.012a2.938 2.938 0 0 0 .264-.035.722.722 0 0 1 .175-.023c.078 0 .158.007.24.023a5.41 5.41 0 0 0 .645.053l.087.006a.35.35 0 0 0 .077.005c.039 0 .076.002.111.006.04 0 .074.006.105.018.032.008.051.025.06.053.01.03.023.068.034.11.016.04.028.083.035.13.012.047.02.094.024.14.008.043.011.08.011.112 0 .508-.017 1.015-.052 1.523-.035.504-.053 1.01-.053 1.518v.41l.006.064c.008.032.016.067.023.106.008.039.014.078.018.117l.018.076a.27.27 0 0 0 .023.094c.02.035.043.07.07.105a.65.65 0 0 0 .1.083c.035.019.072.027.111.023a.538.538 0 0 0 .111-.041l.07-.03a.193.193 0 0 1 .048-.011c.004-.004.017-.006.04-.006a.428.428 0 0 1 .071-.006.544.544 0 0 1 .076-.006.363.363 0 0 1 .047-.006.457.457 0 0 1-.082.288.59.59 0 0 1-.2.164c-.077.039-.165.072-.263.1-.097.027-.193.06-.287.099-.055.023-.11.053-.164.088a2.133 2.133 0 0 1-.322.181.428.428 0 0 1-.17.035.522.522 0 0 1-.182-.023.177.177 0 0 1-.088-.07.378.378 0 0 1-.029-.123c0-.051-.006-.11-.018-.176a.23.23 0 0 0-.023-.07.317.317 0 0 1-.018-.065l-.017-.07-.012-.094a.574.574 0 0 0-.017-.094.39.39 0 0 0-.012-.064h-.03a.276.276 0 0 0-.117.035c-.047.02-.093.043-.14.07a2.661 2.661 0 0 0-.24.159.239.239 0 0 0-.047.046 7.092 7.092 0 0 1-.164.182.395.395 0 0 0-.041.053c-.044.027-.11.064-.2.111a4.976 4.976 0 0 1-.574.24.743.743 0 0 1-.21.047h-.112a7.458 7.458 0 0 1-.1-.017c-.039-.004-.08-.01-.123-.018a4.343 4.343 0 0 1-.105-.012c-.032-.004-.051-.01-.059-.017a.278.278 0 0 1-.07-.03.258.258 0 0 1-.07-.052 2.895 2.895 0 0 0-.194-.094.917.917 0 0 1-.31-.24.79.79 0 0 1-.118-.2 1.264 1.264 0 0 1-.04-.093 1.311 1.311 0 0 1-.047-.182 4.897 4.897 0 0 1-.053-.75ZM40.339 41.374c0-.043.002-.084.006-.123a.176.176 0 0 1 .058-.1c.016 0 .047-.001.094-.005.047-.008.094-.014.14-.018a5.28 5.28 0 0 0 .141-.023.71.71 0 0 1 .1-.012c.09-.012.152-.049.187-.111a.556.556 0 0 0 .077-.223c.011-.086.02-.174.023-.263a.767.767 0 0 1 .047-.247c.004-.05.006-.136.006-.257l.011-.393c.004-.137.006-.265.006-.387.004-.125.006-.21.006-.257v-.088c.004-.051.006-.108.006-.17v-.188a1.915 1.915 0 0 0 0-.293v-.17c0-.054-.002-.103-.006-.146v-.082a.807.807 0 0 0-.006-.07c0-.036-.002-.073-.005-.112a4.412 4.412 0 0 0-.012-.105.17.17 0 0 0-.006-.059.168.168 0 0 0-.047-.064 32.558 32.558 0 0 1-.064-.065.268.268 0 0 0-.077-.111.347.347 0 0 0-.093-.082.228.228 0 0 0-.135-.041l-.152-.012a.363.363 0 0 1-.135-.035c-.04-.02-.065-.063-.076-.129 0-.008.005-.021.017-.04a.345.345 0 0 1 .035-.048.116.116 0 0 1 .03-.04l.058-.06a.51.51 0 0 1 .094-.076.284.284 0 0 1 .064-.052c.043-.028.094-.057.153-.088a3.91 3.91 0 0 1 .176-.1c.062-.035.113-.062.152-.082a.848.848 0 0 1 .21-.082c.079-.023.155-.053.23-.088.066-.043.12-.084.163-.123a.283.283 0 0 1 .188-.058c.074 0 .129.029.164.087.035.055.06.122.076.2.016.074.026.152.03.234.003.078.01.143.017.193v.082c.004.036.006.075.006.118l.012.123c.004.039.007.068.011.088a.28.28 0 0 0 .059.07.16.16 0 0 0 .082.017h.053a.343.343 0 0 1 .04-.046c.02-.024.042-.047.065-.07l.065-.065a.7.7 0 0 0 .04-.053c0-.004.008-.017.024-.04.02-.024.03-.04.03-.048a.24.24 0 0 1 .122-.105.335.335 0 0 0 .141-.112c.09-.12.186-.218.287-.293a7.18 7.18 0 0 1 .352-.252.517.517 0 0 1 .28-.11c.102-.013.21-.018.323-.018.094 0 .178.007.252.023.078.016.15.04.217.07.066.028.13.063.193.106.067.043.133.094.2.152.078.07.158.15.24.24.086.09.144.19.176.3 0 .027.002.066.005.116l.024.141c.012.047.021.09.03.129.007.039.013.062.017.07v.446l.006.046.011.082a.616.616 0 0 1 .018.082.264.264 0 0 1 .012.053v.088c0 .012-.004.04-.012.082-.004.043-.01.09-.018.14a23.18 23.18 0 0 1-.017.235v1.113a.88.88 0 0 1-.023.14l-.012.083a.46.46 0 0 0-.006.041v.61c0 .054.004.119.011.193a.47.47 0 0 0 .077.205 1.562 1.562 0 0 1 .252-.023 1.24 1.24 0 0 1 .234.023c.012 0 .027.014.047.04.023.024.039.044.047.06 0 .007.002.017.006.029v.023a.045.045 0 0 1 .005.018.25.25 0 0 1-.029.111.394.394 0 0 1-.064.1.276.276 0 0 1-.088.076.175.175 0 0 1-.094.03h-.041a.758.758 0 0 0-.158-.035l-.106-.013a.685.685 0 0 0-.058-.005l-.094.005a9.69 9.69 0 0 1-.158.012 2.266 2.266 0 0 0-.287.035.468.468 0 0 0-.065.012.287.287 0 0 1-.07.018h-.668a.44.44 0 0 1-.076.011 8.007 8.007 0 0 1-.252.024l-.076.006h-.07c-.02 0-.04-.012-.06-.036a.423.423 0 0 1-.052-.082.766.766 0 0 1-.041-.1.42.42 0 0 1-.012-.087c0-.05.033-.088.1-.111.07-.024.148-.041.234-.053.09-.012.176-.022.258-.03a.46.46 0 0 0 .182-.052.526.526 0 0 0 .147-.234l.034-.077a.72.72 0 0 0 .041-.199v-.762c.004-.062.006-.119.006-.17v-.1a4.685 4.685 0 0 1-.011-.198c0-.09-.002-.19-.006-.3l-.012-.35c0-.126-.002-.243-.006-.352v-.498a1.026 1.026 0 0 0-.076-.305.999.999 0 0 0-.164-.287.899.899 0 0 0-.24-.217.566.566 0 0 0-.293-.094.633.633 0 0 0-.147.006 3.021 3.021 0 0 0-.17.03 1.212 1.212 0 0 0-.17.046 3.85 3.85 0 0 0-.152.047 2.552 2.552 0 0 0-.252.129l-.129.064c-.035.02-.053.034-.053.041a.488.488 0 0 0-.07.077l-.1.14c-.03.051-.062.098-.093.14l-.053.083a.68.68 0 0 0-.123.316c-.008.11-.024.227-.047.352a.543.543 0 0 0-.041.193v.352c0 .012-.004.039-.012.082l-.023.14-.024.147a.598.598 0 0 0-.011.088v.885c0 .086.002.17.006.252l.023.246c.008.082.022.175.041.28.023.044.057.071.1.083a.624.624 0 0 0 .246.012.806.806 0 0 1 .1-.006c.054 0 .103.03.146.088a.28.28 0 0 1 .064.175c0 .07-.027.118-.082.141a.457.457 0 0 1-.181.035.622.622 0 0 1-.088-.006.395.395 0 0 0-.065-.005 2.84 2.84 0 0 1-.363-.024 3.776 3.776 0 0 0-.363-.017c-.153 0-.309.005-.47.017-.16.016-.321.024-.485.024-.028 0-.065.002-.112.005a.791.791 0 0 1-.129.012.423.423 0 0 1-.164-.03c-.043-.019-.064-.056-.064-.11ZM48.044 37.789v.193c0 .004.004.016.012.035a.595.595 0 0 1 .082.152c.011.032.02.065.023.1.008.035.014.07.018.105a.738.738 0 0 0 .029.1c.012.031.03.059.053.082a.2.2 0 0 1 .052.035.841.841 0 0 1 .07.053c.028.02.052.04.071.059a.555.555 0 0 0 .047.029.364.364 0 0 1 .041.07c.02.04.033.063.041.07.035.024.076.047.123.07l.146.06c.055.015.106.029.153.04.05.008.096.012.135.012.218 0 .39-.045.515-.135a.97.97 0 0 0 .293-.357c.07-.145.121-.305.153-.48.035-.176.07-.346.105-.51 0-.004.004-.018.012-.041a.14.14 0 0 0 .017-.047v-.041c0-.113-.011-.225-.035-.334a1.133 1.133 0 0 0-.111-.31.854.854 0 0 0-.194-.253.847.847 0 0 0-.386-.205c-.04-.015-.08-.029-.123-.04a1.574 1.574 0 0 0-.112-.03.705.705 0 0 1-.064-.023h-.129a.738.738 0 0 0-.38.1.974.974 0 0 0-.288.251 1.563 1.563 0 0 0-.2.346c-.05.125-.089.25-.116.375-.008.008-.012.035-.012.082v.082c0 .008-.008.023-.023.047a.188.188 0 0 0-.018.04v.218Zm-.31 4.722c0 .07.019.135.058.194.043.058.08.115.111.17l.018.04a.41.41 0 0 1 .03.06c.01.023.02.042.029.058.007.02.013.03.017.035l.07.07c.04.035.08.074.123.117.043.043.086.084.13.123l.093.088a.633.633 0 0 0 .252.153 7.334 7.334 0 0 0 .328.087.69.69 0 0 1 .082.03l.082.03a.265.265 0 0 0 .053.01h.287c.203 0 .385-.013.545-.04.16-.024.31-.067.451-.13.14-.058.277-.14.41-.245.133-.102.27-.229.41-.381l.018-.053a.133.133 0 0 0 .018-.053 2.37 2.37 0 0 0 .052-.486c0-.164-.017-.322-.052-.474a.394.394 0 0 0-.035-.065 3.556 3.556 0 0 0-.176-.24.284.284 0 0 0-.053-.059.902.902 0 0 0-.258-.1 2.826 2.826 0 0 0-.264-.046 5.902 5.902 0 0 0-.257-.041 1.07 1.07 0 0 1-.24-.076h-.997a.948.948 0 0 0-.052.005c-.028 0-.061.002-.1.006a10.26 10.26 0 0 1-.111.012.442.442 0 0 0-.082.006 1.024 1.024 0 0 1-.153.035.459.459 0 0 0-.158.076c-.02.016-.05.043-.094.082-.043.04-.086.08-.129.123a3.328 3.328 0 0 1-.123.117c-.035.036-.058.06-.07.07a1.179 1.179 0 0 0-.193.323c-.047.121-.07.244-.07.37Zm1.025 1.805-.059.023a.228.228 0 0 1-.076.018.068.068 0 0 0-.018.012.052.052 0 0 1-.023.005c-.008 0-.016-.003-.023-.011a.053.053 0 0 0-.024-.006.264.264 0 0 1-.053-.012 2.324 2.324 0 0 1-.164-.064 1.649 1.649 0 0 1-.058-.018.411.411 0 0 0-.07-.017 7.166 7.166 0 0 0-.247-.047.414.414 0 0 1-.07-.018 3.098 3.098 0 0 1-.38-.187 1.723 1.723 0 0 1-.34-.264 1.318 1.318 0 0 1-.253-.334.917.917 0 0 1-.093-.416v-.135c0-.008.005-.023.017-.047l.024-.047.006-.046.011-.082a5.071 5.071 0 0 1 .018-.141.365.365 0 0 0 .03-.047c.015-.023.032-.053.052-.088a.805.805 0 0 0 .053-.1l.046-.081c.004 0 .012-.006.024-.018a.692.692 0 0 0 .223-.21.903.903 0 0 1 .199-.206l.111-.088a.517.517 0 0 0 .1-.076.221.221 0 0 0 .07-.088.25.25 0 0 0 .03-.123c0-.04-.01-.07-.03-.094a.143.143 0 0 0-.065-.053.401.401 0 0 0-.081-.029.566.566 0 0 1-.088-.03 2.456 2.456 0 0 1-.235-.152.552.552 0 0 1-.158-.199.852.852 0 0 0-.053-.1l-.058-.11a2.126 2.126 0 0 0-.053-.1l-.03-.059v-.07a2.272 2.272 0 0 1 .023-.31 1.68 1.68 0 0 1 .042-.165c.02-.055.045-.1.076-.135a.217.217 0 0 1 .035-.04c.024-.02.047-.042.07-.065.028-.023.052-.045.071-.065a.408.408 0 0 0 .047-.052c.066-.043.14-.084.223-.123.086-.04.162-.086.228-.14.02-.005.043-.024.07-.06.032-.039.047-.062.047-.07a.595.595 0 0 0-.035-.053l-.023-.035a.066.066 0 0 0-.024-.023 1.589 1.589 0 0 0-.533-.55.943.943 0 0 1-.1-.224 4.024 4.024 0 0 0-.076-.228v-.065c0-.035-.002-.072-.006-.11v-.194c0-.274.038-.51.112-.71.074-.202.18-.374.316-.515.14-.144.31-.26.51-.346.2-.085.426-.152.68-.199l.07-.006a7.702 7.702 0 0 1 .316-.023c.059-.008.106-.012.141-.012H49.356l.077.024c.039.011.066.017.082.017.015 0 .037.004.064.012a.6.6 0 0 1 .082.018c.031.003.057.007.076.011a.44.44 0 0 0 .041.006c.059.004.114.012.164.024.051.007.1.017.147.029l.14.035c.051.008.104.012.159.012.125 0 .244-.014.357-.041a5.642 5.642 0 0 0 .387-.123l.082-.047a1.033 1.033 0 0 1 .135-.07.193.193 0 0 0 .047-.006h.035a.16.16 0 0 1 .035-.006c.074 0 .152.006.234.017a.675.675 0 0 1 .223.07c.07.032.127.077.17.135.047.059.07.133.07.223 0 .145-.033.236-.1.276a.604.604 0 0 1-.298.058.502.502 0 0 1-.17-.03 4.547 4.547 0 0 1-.158-.064 1.914 1.914 0 0 0-.159-.064.5.5 0 0 0-.17-.03c-.09 0-.154.03-.193.088a.391.391 0 0 0-.053.206c0 .039.004.07.012.093a.916.916 0 0 0 .035.065c.016.015.03.033.041.053a.2.2 0 0 1 .035.081c.047.102.09.206.13.311a.86.86 0 0 1 .064.328 2.937 2.937 0 0 1-.094.603 1.699 1.699 0 0 1-.111.329.552.552 0 0 1-.159.21 1.33 1.33 0 0 0-.134.083l-.088.058a1.405 1.405 0 0 0-.17.17.299.299 0 0 1-.135.088 4.225 4.225 0 0 0-.275.041.374.374 0 0 1-.03.024.818.818 0 0 0-.052.029l-.059.023a.104.104 0 0 1-.03.012.197.197 0 0 1-.046.012l-.082.012-.082.011a7.688 7.688 0 0 1-.475.041 5.07 5.07 0 0 0-.422.03c-.136.015-.27.043-.398.082a1.262 1.262 0 0 0-.428.21.7.7 0 0 0-.105.106l-.018.023c0 .012.01.047.03.106a.8.8 0 0 0 .058.117c.027.074.059.143.094.205a.255.255 0 0 0 .17.123c.168.051.332.092.492.123a2.788 2.788 0 0 0 .855.024c.137-.02.256-.041.358-.065a.21.21 0 0 0 .058-.017l.059-.024h.105c.157.02.323.045.498.076.18.028.354.063.522.106a.438.438 0 0 1 .111.059c.043.023.084.05.123.081a.92.92 0 0 1 .117.088l.1.077c.066.058.135.129.205.21.07.079.135.163.194.252.058.09.107.182.146.276.043.098.07.191.082.281l.024.451c.011.153.017.301.017.446 0 .003-.002.005-.006.005v.018a.052.052 0 0 0-.006.023.6.6 0 0 1-.076.217.928.928 0 0 1-.129.194 1.63 1.63 0 0 1-.164.164l-.158.158-.082.053a2.826 2.826 0 0 1-.111.082 7.803 7.803 0 0 1-.159.117 1.314 1.314 0 0 1-.117.023.479.479 0 0 1-.07.018.978.978 0 0 0-.146.053 2.33 2.33 0 0 1-.17.082 3.214 3.214 0 0 1-.165.082.93.93 0 0 1-.093.047.645.645 0 0 1-.13.064.382.382 0 0 1-.105.035c-.004.004-.021.008-.052.012a3.064 3.064 0 0 1-.194.023.689.689 0 0 1-.058.006c-.008.012-.032.024-.07.035a.343.343 0 0 1-.083.018.541.541 0 0 1-.076-.006.359.359 0 0 0-.047-.006 2.516 2.516 0 0 0-.334.088.552.552 0 0 1-.07.03.23.23 0 0 0-.041.023h-.041a5.223 5.223 0 0 0-.252-.035.215.215 0 0 1-.053-.012.287.287 0 0 1-.035-.006.844.844 0 0 1-.059-.017l-.058-.012a.16.16 0 0 0-.035-.006ZM57.472 36.482h-.1a1.42 1.42 0 0 0-.451.076.653.653 0 0 0-.352.264 4.492 4.492 0 0 0-.193.375.24.24 0 0 0-.03.076l-.011.094a3.125 3.125 0 0 1-.023.222 8.075 8.075 0 0 1-.03.27c-.008.09-.015.164-.023.222v.077c.004.035.006.072.006.111v.111a.628.628 0 0 1 .005.065.72.72 0 0 1 .006.1v.064a14.64 14.64 0 0 1 .024.369c.008.059.014.115.017.17a.785.785 0 0 0 .053.187c.016.032.03.067.041.106.016.035.03.068.041.1a.35.35 0 0 0 .03.052c.05.137.107.28.17.428.062.148.138.285.228.41s.195.229.316.31a.794.794 0 0 0 .44.118.04.04 0 0 0 .029-.012l.012-.012a.445.445 0 0 0 .04-.005 1.835 1.835 0 0 1 .241-.065c.027-.012.064-.025.111-.04l.14-.06a2.807 2.807 0 0 0 .2-.081.593.593 0 0 0 .176-.165.62.62 0 0 0 .088-.21 1.21 1.21 0 0 0 .035-.235c.004-.078.006-.154.006-.228v-.153c-.004-.004-.008-.013-.012-.03a1.146 1.146 0 0 1-.012-.052 1.146 1.146 0 0 0-.011-.053.25.25 0 0 1-.006-.04V38.608a.234.234 0 0 0 .035-.1.671.671 0 0 0 .006-.2v-.075a5.445 5.445 0 0 0-.094-.996.234.234 0 0 0-.018-.053l-.011-.035a1.015 1.015 0 0 1-.076-.07 2.275 2.275 0 0 0-.1-.094 1.061 1.061 0 0 0-.094-.094 1.346 1.346 0 0 1-.058-.07c-.012 0-.026-.006-.041-.018l-.035-.023c-.008 0-.02-.006-.036-.018a17.445 17.445 0 0 0-.04-.04.441.441 0 0 0-.047-.042.374.374 0 0 0-.024-.03.861.861 0 0 0-.135-.064.805.805 0 0 0-.082-.04.52.52 0 0 1-.053-.03.454.454 0 0 0-.152-.03 1.632 1.632 0 0 0-.146-.005Zm-.95 4.904a3.115 3.115 0 0 0-.28-.228 8.432 8.432 0 0 0-.3-.217.103.103 0 0 1-.029-.012.929.929 0 0 1-.082-.064c-.012-.012-.018-.022-.018-.03-.007 0-.023-.013-.046-.04a1.628 1.628 0 0 0-.082-.1 2.685 2.685 0 0 0-.083-.111 2.186 2.186 0 0 1-.052-.083.532.532 0 0 1-.094-.27 1.397 1.397 0 0 0-.047-.275.133.133 0 0 1-.017-.029.416.416 0 0 0-.03-.058.462.462 0 0 0-.023-.059.16.16 0 0 1-.012-.035.632.632 0 0 1-.04-.065.204.204 0 0 1-.024-.058l-.006-.076-.012-.123c0-.047-.002-.088-.006-.123a1.122 1.122 0 0 1-.006-.07.183.183 0 0 1-.011-.042.298.298 0 0 0-.006-.058V38.86c.004-.035.01-.055.017-.059v-.105c0-.016.002-.045.006-.088s.006-.088.006-.135l.012-.129.006-.082c.03-.16.066-.316.105-.469.04-.152.09-.298.152-.439a2.24 2.24 0 0 1 .229-.398c.09-.126.201-.24.334-.346.04-.035.08-.069.123-.1a.883.883 0 0 1 .14-.094.564.564 0 0 0 .105-.023.176.176 0 0 1 .03-.006.294.294 0 0 1 .03-.04c.02-.02.037-.04.052-.06a.864.864 0 0 1 .088-.093.519.519 0 0 1 .182-.07c.078-.02.16-.034.246-.041.086-.008.168-.012.246-.012a4.316 4.316 0 0 1 .65.017c.153.016.311.024.475.024h.17a.126.126 0 0 0 .07-.065.316.316 0 0 0 .041-.1.485.485 0 0 0 .012-.105.77.77 0 0 0 .006-.082v-.668c0-.008.002-.023.006-.047a57.94 57.94 0 0 1 .047-.14.189.189 0 0 0 .011-.047V34.419a.994.994 0 0 1-.023-.14 4.295 4.295 0 0 0-.018-.217 34.395 34.395 0 0 0-.011-.21 1.969 1.969 0 0 0-.012-.142 1.085 1.085 0 0 0-.17-.182.596.596 0 0 0-.059-.052c-.027-.035-.07-.055-.128-.059a8.081 8.081 0 0 0-.13-.017 3.587 3.587 0 0 0-.328-.152 2.07 2.07 0 0 0-.076-.03v-.035c0-.035.028-.074.082-.117a.327.327 0 0 1 .153-.082h.17a.102.102 0 0 0 .04-.018c.024-.015.042-.023.053-.023h.13c.148-.016.304-.041.468-.076a8.57 8.57 0 0 1 .475-.1.102.102 0 0 0 .04-.018.294.294 0 0 1 .042-.029H59.563c0 .004.012.012.036.024a.387.387 0 0 1 .064.023c.031.02.065.043.1.07a.15.15 0 0 1 .064.106v.275a14.601 14.601 0 0 0 .018.106.466.466 0 0 1 .017.07c.008.023.012.04.012.047v.627a.249.249 0 0 0-.023.035.798.798 0 0 1-.03.053.23.23 0 0 0-.029.053.136.136 0 0 1-.018.029v.023c0 .051.008.096.024.135.02.039.03.082.03.129v.082l-.007.07c-.004.04-.01.082-.017.13-.004.046-.01.089-.018.128a.444.444 0 0 1-.012.076v.106c.004.05.006.113.006.187v.229a4.943 4.943 0 0 1 0 .433l-.006.106c0 .015-.004.056-.011.123a8.778 8.778 0 0 1-.03.21c-.007.075-.015.145-.023.212a1.398 1.398 0 0 1-.018.117V36.886a2.913 2.913 0 0 1 .041.188l.024.117.017.082v1.295a.221.221 0 0 1-.023.076.319.319 0 0 0-.018.065v.093c0 .016.006.045.018.088a.612.612 0 0 1 .023.07v1.483c0 .09.034.168.1.234.066.067.139.11.217.13a.462.462 0 0 0 .1.01h.11c.063 0 .122.01.176.03.06.016.108.063.147.14a.23.23 0 0 1-.059.065c-.035.032-.054.055-.058.07a2.07 2.07 0 0 0-.182.13.465.465 0 0 1-.082.011 10.262 10.262 0 0 0-.37.03.5.5 0 0 0-.157.046c-.043.02-.088.041-.135.065-.043.02-.092.037-.146.052a.524.524 0 0 1-.188.03.357.357 0 0 1-.2-.047.42.42 0 0 1-.116-.117.795.795 0 0 1-.065-.158 2.7 2.7 0 0 0-.047-.159.334.334 0 0 0-.064-.123.148.148 0 0 0-.117-.047h-.047c-.2.235-.41.407-.633.516-.223.11-.484.164-.785.164h-.035a.809.809 0 0 0-.117-.03 8.444 8.444 0 0 0-.188-.034 5.473 5.473 0 0 0-.31-.065ZM61.55 33.558c0-.086.015-.168.047-.246a.683.683 0 0 1 .345-.346.647.647 0 0 1 .258-.052c.059 0 .115.013.17.04a.917.917 0 0 1 .287.246c.043.047.08.09.112.13.027.02.043.048.046.087.004.04.006.08.006.123a.594.594 0 0 1-.07.3.65.65 0 0 1-.188.199.868.868 0 0 1-.257.117 1.538 1.538 0 0 1-.3.053 1.075 1.075 0 0 1-.333-.258.605.605 0 0 1-.123-.393Zm-.434 7.688c0-.094.026-.155.076-.182a.505.505 0 0 1 .188-.053c.074-.008.152-.014.234-.017a.382.382 0 0 0 .223-.094c0-.024.002-.069.006-.135s.006-.137.006-.21l.011-.218c.004-.066.006-.113.006-.14v-.838l.012-.229c.008-.086.014-.177.017-.275l.012-.275c.008-.086.012-.16.012-.223l.006-.123V37.5l.006-.023.011-.053a.415.415 0 0 0 .024-.082l.011-.023c0-.008-.001-.014-.005-.018v-.011c-.004-.004-.006-.008-.006-.012l-.018-.018a.45.45 0 0 0-.04-.047.622.622 0 0 0-.048-.052.724.724 0 0 1-.023-.041.322.322 0 0 0-.182-.118 4.413 4.413 0 0 0-.24-.076 1.321 1.321 0 0 1-.21-.082.168.168 0 0 1-.089-.152c0-.043.022-.078.065-.106a.404.404 0 0 1 .205-.076l.152-.023.158-.024c.047-.011.076-.02.088-.023a.144.144 0 0 1 .041-.018l.07-.023.07-.03a1.532 1.532 0 0 1 .217-.053.769.769 0 0 0 .194-.058.766.766 0 0 0 .1-.058.832.832 0 0 1 .087-.059.324.324 0 0 1 .094-.04.388.388 0 0 1 .123-.018c.07 0 .123.033.158.1a.434.434 0 0 1 .053.204c0 .113-.01.229-.03.346a2.531 2.531 0 0 0-.023.346c0 .097.002.183.006.257.004.07.02.162.047.276v2.396a.405.405 0 0 1 .012.047c.008.02.012.041.012.065l.011.07a.08.08 0 0 0 .018.04v.06a.245.245 0 0 1-.006.04 1.33 1.33 0 0 0-.012.07.477.477 0 0 1-.035.112v.053a3.085 3.085 0 0 0 .041.223c.016.05.031.097.047.14.016.04.031.063.047.07.004.008.014.012.03.012h.04a.33.33 0 0 0 .065-.006.347.347 0 0 1 .047-.006c.004.008.023.018.058.03.04.008.063.011.07.011a.178.178 0 0 0 .07.018l.106.012c.04 0 .076.004.112.011a.414.414 0 0 1 .07.012c.043.008.07.035.082.082a.5.5 0 0 1 .018.117c0 .063-.026.11-.077.141a.473.473 0 0 1-.158.053h-.984a1.272 1.272 0 0 1-.152-.023l-.094-.012a.267.267 0 0 0-.053-.012h-.053c-.105 0-.217.008-.334.023a2.53 2.53 0 0 1-.345.024h-.305a.362.362 0 0 0-.082-.041 3.322 3.322 0 0 1-.088-.041.147.147 0 0 1-.041-.047.144.144 0 0 1-.012-.053v-.058ZM65.317 37.584c0 .023.01.046.03.07.023.023.049.047.076.07.031.02.06.037.088.053.031.012.056.021.076.03H66.794a9.634 9.634 0 0 1 .398-.042c.086-.012.166-.023.24-.035a.928.928 0 0 0 .165-.035.193.193 0 0 0 .029-.053.206.206 0 0 0 .023-.059v-.099a.952.952 0 0 0-.041-.281.65.65 0 0 0-.011-.077.4.4 0 0 1-.1-.1 1.257 1.257 0 0 0-.088-.11.605.605 0 0 0-.094-.106.357.357 0 0 0-.117-.076 11.296 11.296 0 0 0-.111-.047 2.038 2.038 0 0 0-.129-.064 3.296 3.296 0 0 1-.164-.082h-.088c-.027.003-.063.01-.105.017l-.13.023a3.402 3.402 0 0 0-.163.018.146.146 0 0 0-.059.024l-.082.04-.082.047-.047.024c-.066.023-.13.04-.193.053-.059.011-.11.05-.153.117a2.419 2.419 0 0 0-.052.088 2.325 2.325 0 0 1-.053.088.843.843 0 0 1-.082.123c-.031.035-.06.072-.088.11a.53.53 0 0 0-.07.124.35.35 0 0 0-.03.147Zm-.884 1.43v-.112c.003-.02.007-.057.011-.111a19.788 19.788 0 0 1 .023-.346.432.432 0 0 1 .018-.111c.004-.07.014-.149.03-.235.02-.09.04-.18.064-.27.027-.09.059-.175.094-.257.035-.086.074-.16.117-.223l.023-.023a.429.429 0 0 1 .047-.041l.041-.041a.35.35 0 0 0 .03-.024c.004-.004.008-.015.011-.035l.024-.059a.416.416 0 0 0 .017-.052.953.953 0 0 1 .264-.316c.098-.075.197-.147.299-.218l.193-.117c.063-.039.123-.072.182-.1a1.69 1.69 0 0 1 .193-.081c.07-.024.149-.043.235-.059l.093-.006c.059-.004.125-.006.2-.006l.228-.011c.078-.004.14-.006.188-.006h.105c.129.031.25.068.363.111a1.441 1.441 0 0 1 .598.381c.086.086.164.19.234.31.004.008.01.032.018.07.008.036.016.054.023.054.024.058.051.11.082.158.036.047.067.093.094.14.031.043.057.09.076.141.02.047.03.102.03.164a.325.325 0 0 1-.094.217l-.14.158a4.997 4.997 0 0 1-.545.094c-.071.008-.13.012-.176.012h-.106a1.575 1.575 0 0 0-.855-.012.95.95 0 0 1-.112.012.893.893 0 0 0-.146.023 7.556 7.556 0 0 0-.158.018 2.244 2.244 0 0 1-.188.005H65.6c-.086 0-.147-.002-.182-.005-.031.004-.053.015-.064.035a.23.23 0 0 0-.03.052l-.006.03v.498a1.07 1.07 0 0 0 .1.387c.059.136.127.275.205.416.082.14.168.271.258.392.094.117.18.195.258.234.015.012.052.034.111.065l.188.1c.066.03.128.062.187.093.063.028.106.047.129.059a.1.1 0 0 0 .04-.006.13.13 0 0 1 .042-.006c.078 0 .15.01.217.03.07.019.144.029.222.029h.088c.02 0 .041-.002.065-.006l.586-.305a1.067 1.067 0 0 1 .14-.275.443.443 0 0 1 .117-.094.377.377 0 0 1 .17-.035h.006a.227.227 0 0 1 .03.04c.015.02.023.032.023.036 0 .008-.008.03-.023.065a5.014 5.014 0 0 1-.164.404 2.037 2.037 0 0 1-.176.304l-.041.042-.065.064-.07.07-.047.047-.047.024-.07.04a.357.357 0 0 0-.065.042 1.485 1.485 0 0 1-.697.357c-.074.016-.16.024-.258.024-.257 0-.504-.03-.738-.088a2.29 2.29 0 0 1-.639-.276 1.871 1.871 0 0 1-.492-.469 1.836 1.836 0 0 1-.281-.68 1.728 1.728 0 0 1-.053-.193 32.46 32.46 0 0 1-.111-.51l-.03-.146v-.082ZM74.423 41.439h-.041c-.02.004-.059.01-.117.017a.809.809 0 0 0-.118.03h-1.652a.148.148 0 0 1-.07-.024.466.466 0 0 1-.13-.129.115.115 0 0 1-.023-.058c0-.012.01-.024.03-.035a.445.445 0 0 1 .076-.03.336.336 0 0 1 .076-.023.244.244 0 0 1 .041-.012 1.432 1.432 0 0 1 .639-.147h.123a.166.166 0 0 0 .053-.052.52.52 0 0 0 .04-.076c0-.012.003-.035.006-.07a.992.992 0 0 0 .018-.106 9.976 9.976 0 0 1 .018-.181v-.504l.005-.041.012-.082.018-.082a.346.346 0 0 0 .011-.047V39.746a5.669 5.669 0 0 1-.076-.75l-.011-.745a236.835 236.835 0 0 1-.023-.685 8.763 8.763 0 0 0-.018-.363 2.78 2.78 0 0 0-.036-.381 5.878 5.878 0 0 0-.017-.182 12.077 12.077 0 0 1 .041-.492c.012-.113.021-.219.03-.317.01-.097.019-.158.023-.181v-.58a.284.284 0 0 0-.03-.07.325.325 0 0 1-.023-.07v-.358a4.343 4.343 0 0 0-.035-.287.84.84 0 0 0-.088-.451.496.496 0 0 0-.106-.165.232.232 0 0 0-.164-.076h-.41a.378.378 0 0 1-.111-.047 2.308 2.308 0 0 1-.117-.087 2.864 2.864 0 0 1-.106-.1.569.569 0 0 1-.07-.082v-.053c.008 0 .014-.004.017-.012a.192.192 0 0 1 .024-.029H74.147l.082.006c.047.004.096.01.147.017a10.374 10.374 0 0 1 .228.018h.094a.702.702 0 0 0 .158-.017.596.596 0 0 1 .165-.024h.029a.671.671 0 0 0 .064.012 4.96 4.96 0 0 1 .2.03c.011 0 .023.007.035.023.011.011.017.021.017.029a.147.147 0 0 1-.017.035.074.074 0 0 0-.018.03c-.004.011-.01.019-.017.023a.413.413 0 0 1-.165.164 1.082 1.082 0 0 1-.199.064 3.172 3.172 0 0 1-.205.03.423.423 0 0 0-.181.064.347.347 0 0 0-.135.152.796.796 0 0 0-.047.31v.03l.006.082.011.135a2.303 2.303 0 0 1 .024.217v.68l.006.105c.007.055.013.115.017.182.008.066.014.129.018.187.008.059.012.098.012.117v.575l.005.04.012.053a.329.329 0 0 1 .024.088c.007.04.011.078.011.117 0 .04.002.075.006.106a.159.159 0 0 0 .041.076c.02.02.053.03.1.03.035 0 .066-.01.094-.03a.616.616 0 0 0 .129-.17.377.377 0 0 1 .052-.088c.09-.097.172-.187.246-.27.078-.085.15-.17.217-.251a6.764 6.764 0 0 0 .398-.592.228.228 0 0 0 .024-.065.285.285 0 0 0 .018-.07c.015-.02.043-.053.082-.1.043-.046.085-.095.129-.146a8.975 8.975 0 0 0 .193-.258.134.134 0 0 0 .017-.035.416.416 0 0 1 .03-.059.798.798 0 0 0 .047-.087c.035-.055.07-.106.105-.153.04-.05.072-.1.1-.146a.606.606 0 0 0 .106-.352v-.14a.333.333 0 0 0-.06-.07 1.151 1.151 0 0 0-.093-.106 1.062 1.062 0 0 0-.094-.094 1.52 1.52 0 0 1-.064-.059.268.268 0 0 0-.106-.052 4.336 4.336 0 0 1-.123-.047.495.495 0 0 1-.105-.07.15.15 0 0 1-.041-.112c0-.039.011-.066.035-.082a.255.255 0 0 1 .094-.04.946.946 0 0 1 .11-.019.274.274 0 0 0 .095-.023c.02.008.058.014.117.018a3.139 3.139 0 0 0 .404 0 .873.873 0 0 0 .147-.018 161.906 161.906 0 0 1 .135-.018 1.072 1.072 0 0 1 .128-.023l.076.006c.04.004.082.01.13.017l.128.012.082.006h.58a.35.35 0 0 1 .164-.07 1.146 1.146 0 0 1 .334-.012h.364a2.678 2.678 0 0 0 .135.035.864.864 0 0 1 .093.03l.076.017c.004 0 .01.008.018.023.008.012.014.018.017.018v.024a.18.18 0 0 1-.023.1.187.187 0 0 1-.064.058.397.397 0 0 1-.082.029l-.094.012a8.074 8.074 0 0 1-.498.1c-.18.03-.344.072-.492.122a1.18 1.18 0 0 0-.088.053.255.255 0 0 0-.076.053.544.544 0 0 0-.152.1 1.252 1.252 0 0 1-.1.059 1.594 1.594 0 0 0-.118.058l-.111.058a2.292 2.292 0 0 0-.064.03c-.008 0-.018.005-.03.017a.191.191 0 0 1-.023.03.203.203 0 0 1-.041.064.244.244 0 0 1-.035.047c-.008.011-.012.02-.012.023a.567.567 0 0 1-.059.065 2.067 2.067 0 0 0-.1.093 2.395 2.395 0 0 0-.099.094.39.39 0 0 0-.058.059c-.063.07-.12.138-.17.205a3.213 3.213 0 0 1-.153.187 1.649 1.649 0 0 1-.387.328.39.39 0 0 1-.064.164.562.562 0 0 1-.1.118 1.54 1.54 0 0 1-.117.093.804.804 0 0 0-.123.112 1.973 1.973 0 0 0-.105.117 1.612 1.612 0 0 0-.123.152c-.04.051-.073.102-.1.153a.286.286 0 0 0-.04.129c0 .023.001.04.005.052 0 .012.002.024.006.035a.219.219 0 0 0 .035.041.59.59 0 0 1 .07.07 1.39 1.39 0 0 1 .117.112l.024.053c.016.023.03.05.04.082.017.027.03.055.042.082.012.023.021.037.03.04a.572.572 0 0 0 .034.054c.024.027.047.056.07.088.028.03.051.06.071.087.023.028.04.045.047.053a.234.234 0 0 1 .023.041 1.53 1.53 0 0 0 .106.182.259.259 0 0 1 .023.035c.016.016.03.033.041.053.016.02.03.039.041.058l.035.035c.008.012.032.041.07.088a6.153 6.153 0 0 1 .264.31c.04.048.065.077.077.089.054.082.109.176.164.281a1.377 1.377 0 0 0 .252.34c.035.031.072.066.11.105a15.972 15.972 0 0 0 .183.164c.004.008.01.026.017.053a.134.134 0 0 0 .024.053c.007 0 .02.01.035.03a.73.73 0 0 1 .058.052.42.42 0 0 1 .059.058l.03.03.023.053a1.887 1.887 0 0 1 .088.175 4.031 4.031 0 0 1 .105.176c.035.05.07.104.106.158l.11.153a.33.33 0 0 0 .165.117c.039.008.062.014.07.017.008 0 .018.008.03.024.015.012.023.021.023.03.102.124.207.241.316.35.11.106.227.198.352.276.004.004.017.01.04.018a.532.532 0 0 1 .071.029c.028.012.053.022.076.03.024.007.04.013.047.017 0 .004.006.01.018.017l.04.03c.016.008.03.015.042.023a.103.103 0 0 0 .03.012c.038.023.105.045.198.064.098.016.196.037.293.065a.974.974 0 0 1 .258.111c.074.043.112.104.112.182a.172.172 0 0 1-.006.04.16.16 0 0 0-.006.036 1.583 1.583 0 0 1-.287.041 6.641 6.641 0 0 1-.557 0 .782.782 0 0 1-.24-.041h-1.114a.47.47 0 0 1-.304-.123 1.7 1.7 0 0 1-.234-.246.252.252 0 0 0-.036-.053.805.805 0 0 0-.076-.111 2.56 2.56 0 0 0-.088-.13 3.142 3.142 0 0 1-.07-.099 1.961 1.961 0 0 0-.182-.252 1.773 1.773 0 0 1-.175-.246.626.626 0 0 1-.036-.047 2.691 2.691 0 0 0-.052-.1.665.665 0 0 0-.053-.105.612.612 0 0 1-.03-.064 3.302 3.302 0 0 0-.081-.076 5.542 5.542 0 0 0-.147-.141c-.05-.05-.1-.098-.146-.14a3.915 3.915 0 0 0-.082-.089.229.229 0 0 1-.047-.052.72.72 0 0 0-.047-.076 1.844 1.844 0 0 0-.258-.346 7.839 7.839 0 0 1-.27-.322.438.438 0 0 0-.046-.077 3.003 3.003 0 0 0-.322-.416.455.455 0 0 1-.047-.058.462.462 0 0 0-.088-.041.185.185 0 0 0-.059-.024.137.137 0 0 1-.035-.017.583.583 0 0 0-.018-.065c-.008-.043-.015-.068-.023-.076 0-.004-.012-.014-.035-.03a.707.707 0 0 0-.076-.064 1.192 1.192 0 0 1-.152-.129 2.12 2.12 0 0 1-.147-.11.234.234 0 0 0-.164-.06v2.016l.023.088c.012.04.018.066.018.082v.54c0 .019.003.058.011.116.012.055.022.116.03.182.011.066.021.133.029.2.012.062.021.109.03.14a.189.189 0 0 0 .046.105c.024.02.05.033.082.041a.728.728 0 0 0 .106.018.35.35 0 0 1 .11.017l.089.024c.05.012.103.025.158.04a3.574 3.574 0 0 1 .246.06l.106.011a.52.52 0 0 1 .117.024c.039.011.07.03.093.058a.124.124 0 0 1 .041.1c0 .078-.025.125-.076.14-.05.02-.109.03-.175.03h-.194a.365.365 0 0 0-.047.006c-.02.004-.043.008-.07.011a.463.463 0 0 1-.105.024h-.094c-.113 0-.225-.016-.334-.047a1.323 1.323 0 0 0-.334-.041ZM81.026 39.845a7.351 7.351 0 0 1-.052-.21 3.098 3.098 0 0 1-.035-.551v-1.325a.359.359 0 0 1-.018-.093 1.173 1.173 0 0 1-.006-.094.858.858 0 0 1-.012-.112v-.474a.13.13 0 0 0-.017-.035.974.974 0 0 0-.03-.077.566.566 0 0 0-.029-.087.46.46 0 0 1-.023-.065c-.016-.047-.057-.084-.123-.111a1.321 1.321 0 0 0-.211-.082 5.34 5.34 0 0 0-.235-.065 1.1 1.1 0 0 1-.181-.058c-.047-.02-.075-.05-.082-.088a.57.57 0 0 1-.012-.111c0-.008.008-.028.023-.06a.157.157 0 0 1 .03-.04c.007-.02.033-.041.076-.065a.392.392 0 0 1 .088-.046h.368a.516.516 0 0 0 .089-.012h.03l.058-.012a.264.264 0 0 1 .052-.006.179.179 0 0 1 .03-.006h.275a.619.619 0 0 0 .065-.005l.105-.012a4.88 4.88 0 0 0 .106-.012.88.88 0 0 0 .07-.017.16.16 0 0 0 .035-.006.3.3 0 0 1 .059-.006.763.763 0 0 0 .058-.012.29.29 0 0 1 .035-.006.671.671 0 0 1 .24.065c.087.039.157.092.212.158v.2c0 .3-.018.597-.053.89a7.332 7.332 0 0 0-.053.884c0 .125.008.249.023.37.02.12.03.248.03.38 0 .063-.01.127-.03.194a.82.82 0 0 0-.023.2c0 .187.014.364.041.532.031.168.086.315.164.44a.861.861 0 0 0 .317.299c.136.074.31.11.521.11a1.771 1.771 0 0 0 .492-.07c.086-.023.166-.054.24-.093a.867.867 0 0 0 .206-.14c.097-.102.171-.2.222-.294.055-.093.094-.191.117-.293.028-.105.043-.215.047-.328.004-.117.006-.248.006-.392 0-.036.002-.08.006-.135.004-.055.006-.11.006-.164l-.03-.27-.011-.222a31.526 31.526 0 0 1-.012-.258v-1.488c0-.012-.012-.024-.035-.036a.28.28 0 0 0-.076-.04.344.344 0 0 0-.088-.036.227.227 0 0 0-.076-.017c-.004-.008-.037-.012-.1-.012a2.83 2.83 0 0 0-.176.006 3.766 3.766 0 0 1-.105.006.809.809 0 0 1-.147-.03 1.222 1.222 0 0 1-.152-.058.474.474 0 0 1-.123-.088.18.18 0 0 1-.047-.123v-.035a.238.238 0 0 1 .03-.036.092.092 0 0 0 .017-.023.092.092 0 0 0 .017-.023.628.628 0 0 0 .065-.006.956.956 0 0 1 .105-.006l.1-.012a2.938 2.938 0 0 0 .264-.035.723.723 0 0 1 .175-.023c.079 0 .159.007.24.023a5.427 5.427 0 0 0 .499.047c.054 0 .103.002.146.006l.088.006a.35.35 0 0 0 .076.005c.04 0 .077.002.112.006.039 0 .074.006.105.018.031.008.05.025.059.053.011.03.023.068.035.11.016.04.027.083.035.13.012.047.02.094.023.14.008.043.012.08.012.112 0 .508-.017 1.015-.053 1.523-.035.504-.052 1.01-.052 1.518v.41l.005.064a2.166 2.166 0 0 1 .042.223l.017.076c0 .024.008.055.024.094.02.035.043.07.07.105a.65.65 0 0 0 .1.083c.035.019.072.027.11.023a.532.532 0 0 0 .111-.041l.072-.03a.191.191 0 0 1 .046-.011c.004-.004.018-.006.041-.006a.427.427 0 0 1 .07-.006.541.541 0 0 1 .077-.006.365.365 0 0 1 .047-.006.456.456 0 0 1-.082.288.591.591 0 0 1-.2.164c-.078.039-.166.072-.263.1-.098.027-.194.06-.287.099-.055.023-.11.053-.164.088a2.133 2.133 0 0 1-.323.181.428.428 0 0 1-.17.035.523.523 0 0 1-.181-.023.177.177 0 0 1-.088-.07.38.38 0 0 1-.03-.123c0-.051-.005-.11-.017-.176a.23.23 0 0 0-.023-.07.325.325 0 0 1-.018-.065l-.018-.07-.011-.094a.574.574 0 0 0-.018-.094.39.39 0 0 0-.012-.064h-.029a.276.276 0 0 0-.117.035c-.047.02-.094.043-.14.07a2.703 2.703 0 0 0-.24.159.238.238 0 0 0-.048.046 7.02 7.02 0 0 1-.164.182.395.395 0 0 0-.04.053c-.044.027-.11.064-.2.111a4.944 4.944 0 0 1-.574.24.743.743 0 0 1-.211.047h-.112a7.758 7.758 0 0 1-.1-.017c-.038-.004-.08-.01-.122-.018a4.3 4.3 0 0 1-.106-.012c-.031-.004-.05-.01-.058-.017a.278.278 0 0 1-.07-.03.255.255 0 0 1-.07-.052 2.896 2.896 0 0 0-.194-.094.912.912 0 0 1-.31-.24.787.787 0 0 1-.118-.2 1.27 1.27 0 0 1-.041-.093 1.295 1.295 0 0 1-.047-.182 4.902 4.902 0 0 1-.053-.75ZM86.481 41.275c0-.063.012-.111.036-.147a.236.236 0 0 1 .1-.076.414.414 0 0 1 .14-.035c.054-.008.107-.014.158-.018.008-.007.027-.011.059-.011.03 0 .064.002.1.006.038.004.064.005.075.005a.759.759 0 0 0 .229-.21.605.605 0 0 0 .082-.147.4.4 0 0 0 .035-.158l.018-1.108.011-.222.047-1.114c.012-.07.018-.132.018-.187.004-.059.006-.115.006-.17 0-.066-.008-.139-.024-.217a.55.55 0 0 0-.076-.217 1.35 1.35 0 0 0-.2-.252 1.013 1.013 0 0 0-.257-.205.2.2 0 0 0-.047-.011 1.802 1.802 0 0 0-.076-.024.538.538 0 0 1-.07-.029c-.02-.016-.03-.031-.03-.047 0-.039.034-.082.1-.129s.143-.092.228-.135c.087-.046.17-.086.252-.117.086-.035.145-.062.176-.082a.737.737 0 0 0 .153-.088l.146-.111c.05-.035.102-.064.152-.088a.353.353 0 0 1 .17-.04c.047 0 .084.026.112.081a.793.793 0 0 1 .064.205c.016.078.03.166.041.264.012.094.026.181.041.264.016.078.035.144.059.199.023.054.056.082.1.082a.146.146 0 0 0 .052-.006.241.241 0 0 0 .047-.047c.004-.008.022-.033.053-.076a2.68 2.68 0 0 1 .105-.147l.117-.146a.492.492 0 0 1 .07-.076c.04-.047.108-.106.206-.176a3.447 3.447 0 0 1 .656-.375.666.666 0 0 1 .252-.076c.082 0 .16.015.234.047a.603.603 0 0 1 .205.134c.059.055.106.12.141.194a.542.542 0 0 1 .053.234.782.782 0 0 1-.106.41.663.663 0 0 1-.345.276h-.07a.405.405 0 0 1-.194-.047 4.453 4.453 0 0 1-.176-.111 1.164 1.164 0 0 0-.17-.112.359.359 0 0 0-.187-.053c-.09 0-.17.016-.24.047a8.09 8.09 0 0 0-.206.088.704.704 0 0 1-.076.047.938.938 0 0 0-.1.059 1.134 1.134 0 0 1-.152.082.39.39 0 0 0-.105.117.982.982 0 0 0-.082.17c-.02.058-.037.119-.053.181a1.654 1.654 0 0 0-.03.223c-.003.031-.009.069-.017.111l-.011.13a.993.993 0 0 0-.006.093V38.386l.011.281c.004.106.006.22.006.34l.012.34c.004.106.006.2.006.281.004.078.006.131.006.159v.615a10.536 10.536 0 0 0 .064.287l.059.17c.023.05.047.082.07.094.035.015.084.029.147.04.066.012.13.028.193.047.066.016.123.04.17.07.047.032.07.073.07.124 0 .043-.014.08-.04.111a.38.38 0 0 1-.1.07.453.453 0 0 1-.13.041.45.45 0 0 1-.117.018c-.09 0-.181-.008-.275-.023a1.564 1.564 0 0 0-.27-.024c-.101 0-.207.008-.316.024a2.082 2.082 0 0 1-.305.023h-.017a.343.343 0 0 1-.047-.006.508.508 0 0 1-.07-.006.427.427 0 0 1-.07-.006h-.036a1.534 1.534 0 0 0-.187.018h-.405c-.047 0-.095-.002-.146-.006a.755.755 0 0 1-.14-.023.35.35 0 0 1-.1-.059.165.165 0 0 1-.036-.111ZM91.017 36.359a.234.234 0 0 1-.094-.117.401.401 0 0 1-.035-.158c0-.036.021-.075.064-.118s.082-.064.117-.064h1.289l.99-.041c.079 0 .143.017.194.053.055.035.082.091.082.17 0 .081-.018.142-.053.181a.324.324 0 0 1-.135.088.828.828 0 0 1-.175.03 1.188 1.188 0 0 0-.17.023.33.33 0 0 0-.135.058c-.035.028-.053.073-.053.135 0 .098.014.188.041.27l.1.24c.055.14.1.283.135.428.039.144.086.289.14.433.035.102.076.194.123.276.051.082.094.17.13.263l.023.07c.008.02.013.04.017.06.008.019.012.032.012.04 0 .012.002.03.006.053l.012.064a.542.542 0 0 1 .023.106l.404.808c.016.02.041.032.076.036.036.003.061.005.077.005.039 0 .07-.013.093-.04a.332.332 0 0 0 .053-.106.664.664 0 0 0 .035-.117.535.535 0 0 1 .024-.088c0-.012.015-.026.047-.041.035-.02.052-.033.052-.041a2.58 2.58 0 0 0 .153-.463l.111-.48c.035-.16.082-.313.14-.458a1.99 1.99 0 0 0 .135-.457l.006-.058.012-.111a1.31 1.31 0 0 0 .023-.182.793.793 0 0 0 .018-.088c.012-.05.022-.104.03-.158a3.4 3.4 0 0 0 .04-.24v-.053a.865.865 0 0 1-.047-.053.503.503 0 0 0-.064-.064.362.362 0 0 0-.076-.059.187.187 0 0 0-.076-.035 1.25 1.25 0 0 0-.147-.024l-.129-.023a1.523 1.523 0 0 1-.129-.03 1.066 1.066 0 0 1-.14-.064.118.118 0 0 1-.035-.064.511.511 0 0 1-.006-.07.243.243 0 0 1 .14-.223h.305c.184 0 .36.008.527.023.172.012.348.018.528.018.125 0 .25-.006.375-.018.129-.015.26-.023.392-.023.035 0 .077.002.123.006.047 0 .09.006.13.017.042.012.077.03.105.053.027.023.04.059.04.105a.35.35 0 0 1-.005.053c0 .02-.008.03-.024.03a.417.417 0 0 1-.152.175c-.062.04-.13.075-.205.106l-.21.093a.598.598 0 0 0-.183.123c-.02.02-.05.055-.093.106a32.781 32.781 0 0 1-.27.316.82.82 0 0 0-.076.112c-.05.066-.094.136-.129.21-.031.075-.06.151-.088.23l-.07.234a3.014 3.014 0 0 1-.076.222 3.884 3.884 0 0 1-.106.182l-.058.111a2.226 2.226 0 0 0-.1.258 28.278 28.278 0 0 1-.217.65l-.058.194a.615.615 0 0 0-.065.1l-.088.175a6.75 6.75 0 0 0-.088.17 1.61 1.61 0 0 1-.052.094 8.753 8.753 0 0 1-.035.1 3.085 3.085 0 0 1-.06.181c-.022.066-.046.133-.07.2l-.046.146a.747.747 0 0 1-.094.316c0 .012-.006.022-.018.03-.007.003-.011.011-.011.023a.927.927 0 0 0-.147.299c-.031.11-.076.215-.135.316-.03.035-.085.053-.164.053a.352.352 0 0 1-.058-.012.13.13 0 0 1-.041-.017c-.012 0-.03-.014-.053-.041a.357.357 0 0 1-.041-.07c-.05-.11-.09-.221-.117-.335a2.425 2.425 0 0 0-.094-.34 1.08 1.08 0 0 1-.047-.087 1.815 1.815 0 0 0-.07-.159 73.193 73.193 0 0 1-.076-.152.35.35 0 0 1-.03-.088 1.041 1.041 0 0 1-.046-.094 4.92 4.92 0 0 1-.112-.27.483.483 0 0 0-.035-.081 2.745 2.745 0 0 1-.023-.076 2.545 2.545 0 0 0-.088-.264.279.279 0 0 0-.035-.076.161.161 0 0 0-.024-.041 1.624 1.624 0 0 0-.088-.176.643.643 0 0 1-.03-.065.44.44 0 0 0-.005-.04l-.012-.082a.506.506 0 0 0-.005-.083.675.675 0 0 1-.006-.046c0-.008-.008-.016-.024-.024a2.72 2.72 0 0 1-.164-.375 12.188 12.188 0 0 0-.135-.375.297.297 0 0 0-.005-.035.395.395 0 0 0-.006-.065.33.33 0 0 0-.018-.11l-.058-.118a184.693 184.693 0 0 1-.258-.522 1.204 1.204 0 0 1-.1-.222 2.332 2.332 0 0 0-.1-.276 1.202 1.202 0 0 0-.14-.252.374.374 0 0 0-.2-.152.99.99 0 0 0-.093-.012 9.314 9.314 0 0 0-.135-.023 1.776 1.776 0 0 0-.14-.018 1.662 1.662 0 0 1-.088-.017ZM97.884 37.584c0 .023.01.046.03.07.022.023.048.047.075.07.031.02.06.037.088.053.031.012.057.021.076.03H99.36a9.634 9.634 0 0 1 .399-.042c.086-.012.166-.023.24-.035a.922.922 0 0 0 .164-.035.17.17 0 0 0 .029-.053.203.203 0 0 0 .024-.059v-.099a.934.934 0 0 0-.041-.281.635.635 0 0 0-.012-.077.415.415 0 0 1-.1-.1 1.15 1.15 0 0 0-.087-.11.605.605 0 0 0-.094-.106.357.357 0 0 0-.117-.076 11.296 11.296 0 0 0-.112-.047 2.038 2.038 0 0 0-.129-.064 3.296 3.296 0 0 1-.164-.082h-.088c-.027.003-.062.01-.105.017l-.129.023a3.402 3.402 0 0 0-.164.018.146.146 0 0 0-.059.024l-.082.04-.082.047-.046.024c-.067.023-.131.04-.194.053-.058.011-.11.05-.152.117a2.419 2.419 0 0 0-.053.088 2.325 2.325 0 0 1-.053.088.843.843 0 0 1-.082.123c-.031.035-.06.072-.088.11a.53.53 0 0 0-.07.124.35.35 0 0 0-.03.147Zm-.885 1.43v-.112c.004-.02.008-.057.012-.111.008-.055.011-.112.011-.17l.012-.176a.432.432 0 0 1 .018-.111c.004-.07.013-.149.029-.235.02-.09.041-.18.064-.27.028-.09.06-.175.094-.257.035-.086.075-.16.117-.223l.024-.023a.429.429 0 0 1 .047-.041l.04-.041a.378.378 0 0 0 .03-.024c.004-.004.008-.015.012-.035l.023-.059a.416.416 0 0 0 .018-.052.953.953 0 0 1 .264-.316c.097-.075.197-.147.298-.218l.194-.117c.062-.039.123-.072.181-.1a1.69 1.69 0 0 1 .194-.081c.07-.024.148-.043.234-.059l.094-.006c.058-.004.125-.006.199-.006l.228-.011c.079-.004.141-.006.188-.006h.105c.13.031.25.068.364.111a1.45 1.45 0 0 1 .597.381c.086.086.164.19.235.31.004.008.01.032.017.07.008.036.016.054.024.054a.85.85 0 0 0 .082.158c.035.047.066.093.094.14.031.043.056.09.076.141a.435.435 0 0 1 .029.164.323.323 0 0 1-.094.217l-.14.158a5.209 5.209 0 0 1-.545.094 1.636 1.636 0 0 1-.176.012h-.105a1.575 1.575 0 0 0-.856-.012.948.948 0 0 1-.111.012.893.893 0 0 0-.147.023 7.556 7.556 0 0 0-.158.018 2.24 2.24 0 0 1-.188.005h-.562c-.086 0-.147-.002-.182-.005-.03.004-.052.015-.064.035a.23.23 0 0 0-.03.052l-.005.03v.498a1.07 1.07 0 0 0 .1.387c.058.136.126.275.205.416.082.14.167.271.257.392.094.117.18.195.258.234.016.012.053.034.111.065l.188.1c.066.03.129.062.187.093.063.028.106.047.13.059a.1.1 0 0 0 .04-.006.13.13 0 0 1 .041-.006c.079 0 .15.01.217.03.07.019.145.029.223.029h.088c.02 0 .04-.002.064-.006l.586-.305a1.057 1.057 0 0 1 .141-.275.44.44 0 0 1 .117-.094.376.376 0 0 1 .17-.035h.006a.304.304 0 0 1 .029.04c.016.02.023.032.023.036 0 .008-.007.03-.023.065l-.029.082c-.043.113-.088.22-.135.322a2.074 2.074 0 0 1-.176.305l-.041.04-.064.065-.071.07-.047.047-.046.024-.071.04a.35.35 0 0 0-.064.042.222.222 0 0 0-.035.023l-.241.147a1.458 1.458 0 0 1-.421.187c-.075.016-.16.023-.258.023-.258 0-.504-.029-.739-.087a2.29 2.29 0 0 1-.638-.276 1.871 1.871 0 0 1-.492-.469 1.837 1.837 0 0 1-.282-.68 1.728 1.728 0 0 1-.052-.193 32.46 32.46 0 0 1-.112-.51L97 39.096v-.082ZM102.888 37.584c0 .023.009.046.029.07.023.023.049.047.076.07.031.02.061.037.088.053.031.012.057.021.076.03H104.364a9.417 9.417 0 0 1 .399-.042c.086-.012.166-.023.24-.035a.922.922 0 0 0 .164-.035.17.17 0 0 0 .029-.053.203.203 0 0 0 .024-.059v-.099a.934.934 0 0 0-.041-.281.635.635 0 0 0-.012-.077.415.415 0 0 1-.1-.1 1.07 1.07 0 0 0-.088-.11.593.593 0 0 0-.093-.106.375.375 0 0 0-.117-.076l-.112-.047a2.04 2.04 0 0 0-.129-.064 3.082 3.082 0 0 1-.164-.082h-.088c-.027.003-.062.01-.105.017l-.129.023a3.28 3.28 0 0 0-.164.018.149.149 0 0 0-.059.024l-.082.04-.082.047-.047.024c-.066.023-.13.04-.193.053-.059.011-.109.05-.152.117a1.687 1.687 0 0 0-.053.088 1.687 1.687 0 0 1-.053.088.828.828 0 0 1-.082.123c-.031.035-.06.072-.088.11a.565.565 0 0 0-.07.124.343.343 0 0 0-.029.147Zm-.885 1.43v-.112c.004-.02.008-.057.012-.111a19.463 19.463 0 0 1 .023-.346.422.422 0 0 1 .018-.111c.004-.07.013-.149.029-.235.019-.09.041-.18.064-.27.028-.09.059-.175.094-.257.035-.086.074-.16.117-.223l.024-.023a.354.354 0 0 1 .047-.041l.041-.041a.512.512 0 0 0 .029-.024c.004-.004.008-.015.012-.035l.023-.059a.408.408 0 0 0 .018-.052.972.972 0 0 1 .263-.316c.098-.075.198-.147.299-.218l.194-.117c.062-.039.123-.072.181-.1.063-.03.127-.058.194-.081.07-.024.148-.043.234-.059l.094-.006c.058-.004.125-.006.199-.006l.228-.011c.079-.004.141-.006.188-.006h.105c.129.031.25.068.364.111a1.45 1.45 0 0 1 .597.381c.086.086.164.19.235.31a.454.454 0 0 1 .017.07c.008.036.016.054.024.054.023.058.05.11.082.158.035.047.066.093.093.14.032.043.057.09.077.141a.435.435 0 0 1 .029.164.323.323 0 0 1-.094.217l-.14.158a4.953 4.953 0 0 1-.545.094 1.636 1.636 0 0 1-.176.012h-.106a7.672 7.672 0 0 0-.65-.024c-.078 0-.146.004-.205.012a.964.964 0 0 1-.111.012.86.86 0 0 0-.147.023 7.05 7.05 0 0 0-.158.018 2.257 2.257 0 0 1-.188.005h-.562c-.086 0-.147-.002-.182-.005-.031.004-.052.015-.064.035a.194.194 0 0 0-.029.052l-.006.03v.498a1.056 1.056 0 0 0 .099.387c.059.136.127.275.205.416.082.14.168.271.258.392.094.117.18.195.258.234.016.012.053.034.111.065l.188.1c.066.03.129.062.187.093.063.028.106.047.129.059a.1.1 0 0 0 .041-.006.134.134 0 0 1 .041-.006c.078 0 .151.01.217.03.07.019.145.029.223.029h.088a.391.391 0 0 0 .064-.006l.586-.305a1.057 1.057 0 0 1 .141-.275.44.44 0 0 1 .117-.094.376.376 0 0 1 .17-.035h.006a.304.304 0 0 1 .029.04c.016.02.023.032.023.036 0 .008-.007.03-.023.065l-.029.082c-.043.113-.088.22-.135.322a2.074 2.074 0 0 1-.176.305l-.041.04-.064.065-.071.07-.047.047-.046.024-.071.04a.35.35 0 0 0-.064.042.178.178 0 0 0-.035.023l-.241.147a1.424 1.424 0 0 1-.422.187c-.074.016-.16.023-.257.023-.258 0-.504-.029-.739-.087a2.285 2.285 0 0 1-.638-.276 1.85 1.85 0 0 1-.492-.469 1.84 1.84 0 0 1-.282-.68 1.786 1.786 0 0 1-.052-.193c-.02-.085-.04-.173-.059-.263l-.053-.246a11.499 11.499 0 0 0-.029-.147v-.082ZM107.892 37.584c0 .023.009.046.029.07.023.023.049.047.076.07.031.02.061.037.088.053.031.012.057.021.076.03H109.368a9.417 9.417 0 0 1 .399-.042c.086-.012.166-.023.24-.035a.922.922 0 0 0 .164-.035.194.194 0 0 0 .029-.053.203.203 0 0 0 .024-.059v-.099a1.194 1.194 0 0 0-.041-.281.635.635 0 0 0-.012-.077.415.415 0 0 1-.1-.1 1.07 1.07 0 0 0-.088-.11.593.593 0 0 0-.093-.106.369.369 0 0 0-.118-.076 7.934 7.934 0 0 0-.111-.047 2.04 2.04 0 0 0-.129-.064 3.082 3.082 0 0 1-.164-.082h-.088c-.027.003-.062.01-.105.017l-.129.023a3.28 3.28 0 0 0-.164.018.149.149 0 0 0-.059.024l-.082.04a5.994 5.994 0 0 1-.129.07 1.305 1.305 0 0 1-.193.054c-.059.011-.109.05-.152.117a1.687 1.687 0 0 0-.053.088 1.687 1.687 0 0 1-.053.088.828.828 0 0 1-.082.123c-.031.035-.06.072-.088.11a.527.527 0 0 0-.07.124.343.343 0 0 0-.029.147Zm-.885 1.43v-.112c.004-.02.008-.057.012-.111a19.463 19.463 0 0 1 .023-.346.422.422 0 0 1 .018-.111 1.69 1.69 0 0 1 .029-.235c.019-.09.041-.18.064-.27.028-.09.059-.175.094-.257.035-.086.074-.16.117-.223l.024-.023a.354.354 0 0 1 .047-.041l.041-.041a.512.512 0 0 0 .029-.024c.004-.004.008-.015.012-.035l.023-.059a.408.408 0 0 0 .018-.052.972.972 0 0 1 .263-.316c.098-.075.198-.147.299-.218l.193-.117c.063-.039.124-.072.182-.1.063-.03.127-.058.193-.081a1.73 1.73 0 0 1 .235-.059l.094-.006c.058-.004.125-.006.199-.006l.228-.011c.078-.004.141-.006.188-.006h.105c.129.031.25.068.364.111a1.45 1.45 0 0 1 .597.381c.086.086.164.19.235.31a.454.454 0 0 1 .017.07c.008.036.016.054.024.054.023.058.05.11.082.158.035.047.066.093.093.14.032.043.057.09.077.141a.435.435 0 0 1 .029.164.323.323 0 0 1-.094.217l-.141.158a4.953 4.953 0 0 1-.544.094 1.636 1.636 0 0 1-.176.012h-.106a7.672 7.672 0 0 0-.65-.024c-.078 0-.147.004-.205.012a.964.964 0 0 1-.111.012.86.86 0 0 0-.147.023 9.688 9.688 0 0 0-.158.018 2.257 2.257 0 0 1-.188.005h-.562c-.086 0-.147-.002-.182-.005-.031.004-.053.015-.064.035a.228.228 0 0 0-.03.052l-.005.03v.498l.005.053c.004.082.036.193.094.334.059.136.127.275.205.416.082.14.168.271.258.392.094.117.18.195.258.234.016.012.053.034.111.065l.188.1c.066.03.129.062.187.093.063.028.106.047.129.059a.1.1 0 0 0 .041-.006.134.134 0 0 1 .041-.006c.078 0 .151.01.217.03.07.019.144.029.223.029h.088a.391.391 0 0 0 .064-.006l.586-.305a1.2 1.2 0 0 1 .058-.14.44.44 0 0 1 .2-.228.376.376 0 0 1 .17-.036h.005a.227.227 0 0 1 .03.04c.015.02.023.032.023.036 0 .008-.008.03-.023.065a4.459 4.459 0 0 1-.164.404 2.074 2.074 0 0 1-.176.304l-.041.042-.065.064-.07.07-.047.047-.047.024-.07.04a.35.35 0 0 0-.064.042 1.48 1.48 0 0 1-.698.357c-.074.016-.16.024-.257.024-.258 0-.504-.03-.739-.088a2.285 2.285 0 0 1-.638-.276 1.87 1.87 0 0 1-.493-.469 1.856 1.856 0 0 1-.281-.68 1.998 1.998 0 0 1-.053-.193l-.058-.263-.053-.246-.029-.147v-.082ZM112.895 37.584c0 .023.01.046.03.07.023.023.049.047.076.07.031.02.061.037.088.053.031.012.056.021.076.03H114.372a9.417 9.417 0 0 1 .398-.042c.086-.012.167-.023.241-.035a.922.922 0 0 0 .164-.035.194.194 0 0 0 .029-.053.203.203 0 0 0 .024-.059v-.099a1.194 1.194 0 0 0-.041-.281.635.635 0 0 0-.012-.077.415.415 0 0 1-.1-.1 1.07 1.07 0 0 0-.088-.11.593.593 0 0 0-.093-.106.369.369 0 0 0-.118-.076 7.934 7.934 0 0 0-.111-.047 2.04 2.04 0 0 0-.129-.064 3.082 3.082 0 0 1-.164-.082h-.088c-.027.003-.062.01-.105.017l-.129.023a3.68 3.68 0 0 0-.164.018.143.143 0 0 0-.059.024l-.082.04-.082.047-.047.024a1.305 1.305 0 0 1-.193.053c-.059.011-.11.05-.153.117-.007.011-.025.04-.052.088l-.053.088a.828.828 0 0 1-.082.123 1.222 1.222 0 0 0-.088.11.527.527 0 0 0-.07.124.343.343 0 0 0-.03.147Zm-.884 1.43v-.112a.885.885 0 0 0 .011-.111 19.463 19.463 0 0 1 .024-.346.485.485 0 0 1 .017-.111c.004-.07.014-.149.03-.235.019-.09.041-.18.064-.27.028-.09.059-.175.094-.257.035-.086.074-.16.117-.223l.024-.023a.424.424 0 0 1 .046-.041l.041-.041a.362.362 0 0 0 .03-.024c.004-.004.008-.015.011-.035l.024-.059a.408.408 0 0 0 .018-.052.957.957 0 0 1 .263-.316 8.26 8.26 0 0 1 .299-.218l.193-.117c.063-.039.123-.072.182-.1.063-.03.127-.058.193-.081a1.73 1.73 0 0 1 .235-.059l.093-.006a3.05 3.05 0 0 1 .2-.006l.228-.011c.078-.004.141-.006.188-.006h.105c.129.031.25.068.363.111a1.437 1.437 0 0 1 .598.381c.086.086.164.19.235.31a.63.63 0 0 1 .017.07c.008.036.016.054.024.054.023.058.05.11.082.158.035.047.066.093.093.14.032.043.057.09.076.141.02.047.03.102.03.164a.323.323 0 0 1-.094.217l-.141.158a4.881 4.881 0 0 1-.545.094c-.07.008-.128.012-.175.012h-.106a1.568 1.568 0 0 0-.855-.012.953.953 0 0 1-.112.012.988.988 0 0 0-.146.023 9.688 9.688 0 0 0-.158.018 2.257 2.257 0 0 1-.188.005h-.562c-.086 0-.147-.002-.182-.005-.031.004-.053.015-.064.035a.228.228 0 0 0-.03.052l-.006.03v.498a1.092 1.092 0 0 0 .1.387c.059.136.127.275.205.416.082.14.168.271.258.392.094.117.18.195.258.234.015.012.053.034.111.065l.188.1c.066.03.129.062.187.093.063.028.106.047.129.059a.1.1 0 0 0 .041-.006.13.13 0 0 1 .041-.006c.078 0 .15.01.217.03.07.019.144.029.223.029h.087c.02 0 .041-.002.065-.006l.586-.305a1.05 1.05 0 0 1 .14-.275.46.46 0 0 1 .118-.094.373.373 0 0 1 .17-.035h.005a.227.227 0 0 1 .03.04c.015.02.023.032.023.036 0 .008-.008.03-.023.065a4.961 4.961 0 0 1-.164.404 2.074 2.074 0 0 1-.176.304l-.041.042-.065.064-.07.07-.047.047-.047.024-.07.04a.35.35 0 0 0-.064.042.256.256 0 0 0-.036.023l-.24.147a1.48 1.48 0 0 1-.422.187c-.074.016-.16.023-.258.023a3.04 3.04 0 0 1-.738-.087 2.285 2.285 0 0 1-.638-.276 1.87 1.87 0 0 1-.493-.469 1.856 1.856 0 0 1-.281-.68 1.742 1.742 0 0 1-.053-.193l-.058-.263-.053-.246-.029-.147v-.082ZM117.899 37.584c0 .023.01.046.03.07.023.023.049.047.076.07.031.02.06.037.088.053.031.012.056.021.076.03H119.376a9.417 9.417 0 0 1 .398-.042c.086-.012.166-.023.241-.035a.944.944 0 0 0 .164-.035.194.194 0 0 0 .029-.053.188.188 0 0 0 .023-.059v-.099a.896.896 0 0 0-.023-.17.93.93 0 0 0-.018-.111.508.508 0 0 0-.011-.077.398.398 0 0 1-.1-.1 1.222 1.222 0 0 0-.088-.11.561.561 0 0 0-.211-.182 7.934 7.934 0 0 0-.111-.047 2.04 2.04 0 0 0-.129-.064 3.082 3.082 0 0 1-.164-.082h-.088c-.027.003-.062.01-.105.017l-.129.023a3.68 3.68 0 0 0-.164.018.143.143 0 0 0-.059.024l-.082.04-.082.047-.047.024a1.305 1.305 0 0 1-.193.053c-.059.011-.11.05-.153.117-.007.011-.025.04-.052.088l-.053.088a.913.913 0 0 1-.082.123 1.222 1.222 0 0 0-.088.11.527.527 0 0 0-.07.124.343.343 0 0 0-.03.147Zm-.884 1.43v-.112c.004-.02.007-.057.011-.111a19.463 19.463 0 0 1 .024-.346.485.485 0 0 1 .017-.111c.004-.07.014-.149.03-.235.019-.09.041-.18.064-.27.027-.09.059-.175.094-.257.035-.086.074-.16.117-.223a.55.55 0 0 1 .07-.064l.041-.041a.362.362 0 0 0 .03-.024c.004-.004.007-.015.011-.035l.024-.059a.286.286 0 0 0 .017-.052.943.943 0 0 1 .264-.316 8.26 8.26 0 0 1 .299-.218l.193-.117c.063-.039.123-.072.182-.1.062-.03.127-.058.193-.081a1.73 1.73 0 0 1 .235-.059l.093-.006a3.05 3.05 0 0 1 .2-.006l.228-.011c.078-.004.141-.006.188-.006h.105c.129.031.25.068.363.111a1.437 1.437 0 0 1 .598.381c.086.086.164.19.234.31.004.008.01.032.018.07.008.036.016.054.023.054a.914.914 0 0 0 .082.158c.036.047.067.093.094.14a.6.6 0 0 1 .076.141c.02.047.03.102.03.164a.328.328 0 0 1-.094.217l-.141.158a4.881 4.881 0 0 1-.545.094 1.62 1.62 0 0 1-.175.012h-.106a1.568 1.568 0 0 0-.855-.012.953.953 0 0 1-.112.012.876.876 0 0 0-.146.023 7.263 7.263 0 0 0-.158.018 2.257 2.257 0 0 1-.188.005h-.562c-.086 0-.147-.002-.182-.005-.031.004-.053.015-.064.035a.228.228 0 0 0-.03.052l-.006.03v.498a1.063 1.063 0 0 0 .1.387c.059.136.127.275.205.416.082.14.168.271.258.392.094.117.18.195.258.234a.972.972 0 0 0 .111.065l.188.1c.066.03.128.062.187.093.063.028.106.047.129.059a.103.103 0 0 0 .041-.006.13.13 0 0 1 .041-.006c.078 0 .15.01.217.03.07.019.144.029.222.029h.088c.02 0 .041-.002.065-.006l.586-.305a1.05 1.05 0 0 1 .14-.275.443.443 0 0 1 .118-.094.372.372 0 0 1 .169-.035h.006a.227.227 0 0 1 .03.04c.015.02.023.032.023.036 0 .008-.008.03-.023.065a5.591 5.591 0 0 1-.164.404 2.074 2.074 0 0 1-.176.304l-.041.042-.065.064-.07.07-.047.047-.047.024-.07.04a.358.358 0 0 0-.065.042 1.48 1.48 0 0 1-.697.357c-.074.016-.16.024-.258.024-.257 0-.504-.03-.738-.088a2.304 2.304 0 0 1-.639-.276 1.881 1.881 0 0 1-.492-.469 1.839 1.839 0 0 1-.281-.68 1.742 1.742 0 0 1-.053-.193l-.058-.263-.053-.246-.029-.147v-.082ZM122.903 37.584c0 .023.01.046.03.07.023.023.048.047.076.07.031.02.06.037.088.053.031.012.056.021.076.03H124.38a9.417 9.417 0 0 1 .398-.042c.086-.012.166-.023.241-.035a.944.944 0 0 0 .164-.035.227.227 0 0 0 .029-.053.188.188 0 0 0 .023-.059v-.099a.612.612 0 0 0-.006-.065.774.774 0 0 0-.017-.105.93.93 0 0 0-.018-.111.688.688 0 0 0-.011-.077.398.398 0 0 1-.1-.1 1.222 1.222 0 0 0-.088-.11.561.561 0 0 0-.211-.182 7.934 7.934 0 0 0-.111-.047 2.04 2.04 0 0 0-.129-.064 3.082 3.082 0 0 1-.164-.082h-.088c-.027.003-.063.01-.105.017l-.129.023a3.68 3.68 0 0 0-.164.018.143.143 0 0 0-.059.024l-.082.04-.082.047-.047.024a1.305 1.305 0 0 1-.193.053c-.059.011-.11.05-.153.117a2.025 2.025 0 0 0-.052.088l-.053.088a.913.913 0 0 1-.082.123 1.222 1.222 0 0 0-.088.11.527.527 0 0 0-.07.124.343.343 0 0 0-.03.147Zm-.884 1.43v-.112c.003-.02.007-.057.011-.111a19.463 19.463 0 0 1 .024-.346.434.434 0 0 1 .017-.111c.004-.07.014-.149.03-.235.019-.09.041-.18.064-.27.027-.09.059-.175.094-.257.035-.086.074-.16.117-.223l.023-.023a.55.55 0 0 1 .047-.041l.041-.041a.362.362 0 0 0 .03-.024.11.11 0 0 0 .011-.035l.024-.059a.39.39 0 0 0 .017-.052.943.943 0 0 1 .264-.316 8.26 8.26 0 0 1 .299-.218l.193-.117c.063-.039.123-.072.182-.1.062-.03.127-.058.193-.081.07-.024.149-.043.235-.059l.093-.006a3.05 3.05 0 0 1 .2-.006l.228-.011c.078-.004.141-.006.188-.006h.105c.129.031.25.068.363.111a1.458 1.458 0 0 1 .598.381c.086.086.164.19.234.31.004.008.01.032.018.07.008.036.016.054.023.054a.914.914 0 0 0 .082.158c.036.047.067.093.094.14a.6.6 0 0 1 .076.141c.02.047.03.102.03.164a.328.328 0 0 1-.094.217l-.141.158a4.881 4.881 0 0 1-.545.094 1.62 1.62 0 0 1-.175.012h-.106a1.568 1.568 0 0 0-.855-.012.953.953 0 0 1-.112.012.876.876 0 0 0-.146.023 7.263 7.263 0 0 0-.158.018 2.257 2.257 0 0 1-.188.005h-.562c-.086 0-.147-.002-.182-.005-.031.004-.053.015-.065.035a.27.27 0 0 0-.029.052l-.006.03v.498a1.063 1.063 0 0 0 .1.387c.059.136.127.275.205.416.082.14.168.271.258.392a.842.842 0 0 0 .258.234.972.972 0 0 0 .111.065l.187.1c.067.03.129.062.188.093l.129.059a.103.103 0 0 0 .041-.006.13.13 0 0 1 .041-.006c.078 0 .15.01.217.03.07.019.144.029.222.029h.088c.02 0 .041-.002.065-.006l.586-.305a1.05 1.05 0 0 1 .14-.275.44.44 0 0 1 .117-.094.379.379 0 0 1 .17-.035h.006a.227.227 0 0 1 .03.04c.015.02.023.032.023.036 0 .008-.008.03-.023.065a4.957 4.957 0 0 1-.165.404 1.98 1.98 0 0 1-.175.304l-.041.042-.065.064-.07.07-.047.047-.047.024-.07.04a.358.358 0 0 0-.065.042 1.48 1.48 0 0 1-.697.357c-.074.016-.16.024-.258.024-.258 0-.504-.03-.738-.088a2.304 2.304 0 0 1-.639-.276 1.881 1.881 0 0 1-.492-.469 1.839 1.839 0 0 1-.281-.68 1.742 1.742 0 0 1-.053-.193l-.058-.263a13.317 13.317 0 0 1-.082-.393v-.082ZM127.907 37.584c0 .023.01.046.03.07.023.023.048.047.076.07.031.02.06.037.088.053.031.012.056.021.076.03H129.384a9.417 9.417 0 0 1 .398-.042c.086-.012.166-.023.24-.035a.938.938 0 0 0 .165-.035.227.227 0 0 0 .029-.053.22.22 0 0 0 .023-.059v-.099a1.07 1.07 0 0 0-.052-.358.382.382 0 0 1-.1-.1 1.222 1.222 0 0 0-.088-.11.598.598 0 0 0-.094-.106.353.353 0 0 0-.117-.076 7.934 7.934 0 0 0-.111-.047 2.04 2.04 0 0 0-.129-.064 3.082 3.082 0 0 1-.164-.082h-.088c-.027.003-.063.01-.106.017l-.128.023a3.37 3.37 0 0 0-.165.018.146.146 0 0 0-.058.024 7.98 7.98 0 0 0-.082.04 5.994 5.994 0 0 0-.082.047l-.047.024a1.305 1.305 0 0 1-.193.053c-.059.011-.11.05-.153.117-.008.011-.025.04-.053.088a2.025 2.025 0 0 1-.134.21 1.07 1.07 0 0 0-.088.112.493.493 0 0 0-.07.123.343.343 0 0 0-.03.147Zm-.885 1.43v-.112c.004-.02.008-.057.012-.111a19.463 19.463 0 0 1 .024-.346.434.434 0 0 1 .017-.111c.004-.07.014-.149.029-.235.02-.09.041-.18.065-.27.027-.09.059-.175.094-.257.035-.086.074-.16.117-.223a.55.55 0 0 1 .07-.064l.041-.041a.201.201 0 0 0 .029-.024c.004-.004.008-.015.012-.035l.024-.059a.614.614 0 0 0 .017-.052.943.943 0 0 1 .264-.316 8.26 8.26 0 0 1 .299-.218l.193-.117c.063-.039.123-.072.182-.1.062-.03.127-.058.193-.081.07-.024.149-.043.234-.059l.094-.006c.059-.004.125-.006.199-.006l.229-.011a3.84 3.84 0 0 1 .187-.006h.106c.129.031.25.068.363.111a1.43 1.43 0 0 1 .598.381c.086.086.164.19.234.31.004.008.01.032.018.07.008.036.015.054.023.054a.914.914 0 0 0 .082.158c.035.047.067.093.094.14a.6.6 0 0 1 .076.141c.02.047.029.102.029.164a.327.327 0 0 1-.093.217l-.141.158a4.881 4.881 0 0 1-.545.094 1.62 1.62 0 0 1-.176.012h-.105a7.796 7.796 0 0 0-.65-.024c-.079 0-.147.004-.206.012a.923.923 0 0 1-.111.012.96.96 0 0 0-.146.023 7.263 7.263 0 0 0-.159.018 2.23 2.23 0 0 1-.187.005h-.563c-.085 0-.146-.002-.181-.005-.031.004-.053.015-.065.035a.27.27 0 0 0-.029.052l-.006.03v.498a1.063 1.063 0 0 0 .1.387c.058.136.127.275.205.416.082.14.168.271.258.392a.831.831 0 0 0 .258.234.972.972 0 0 0 .111.065l.187.1c.067.03.129.062.188.093l.129.059a.103.103 0 0 0 .041-.006.125.125 0 0 1 .041-.006c.078 0 .15.01.217.03.07.019.144.029.222.029h.088c.02 0 .041-.002.065-.006l.586-.305a1.05 1.05 0 0 1 .14-.275.44.44 0 0 1 .117-.094.379.379 0 0 1 .17-.035h.006a.19.19 0 0 1 .029.04c.016.02.024.032.024.036 0 .008-.008.03-.024.065a4.957 4.957 0 0 1-.164.404 2.065 2.065 0 0 1-.175.304l-.041.042-.065.064-.07.07-.047.047-.047.024-.07.04a.358.358 0 0 0-.065.042 1.539 1.539 0 0 1-.697.357c-.074.016-.16.024-.258.024-.258 0-.504-.03-.738-.088a2.304 2.304 0 0 1-.639-.276 1.881 1.881 0 0 1-.492-.469 1.822 1.822 0 0 1-.281-.68 1.742 1.742 0 0 1-.053-.193l-.059-.263-.052-.246-.03-.147v-.082ZM132.911 37.584c0 .023.01.046.029.07.024.023.049.047.077.07l.087.053c.032.012.057.021.077.03H134.388a9.417 9.417 0 0 1 .398-.042c.086-.012.166-.023.24-.035a.922.922 0 0 0 .164-.035.189.189 0 0 0 .03-.053.22.22 0 0 0 .023-.059v-.099a.93.93 0 0 0-.041-.281.635.635 0 0 0-.012-.077.394.394 0 0 1-.099-.1 1.426 1.426 0 0 0-.088-.11.598.598 0 0 0-.094-.106.353.353 0 0 0-.117-.076 7.934 7.934 0 0 0-.111-.047 2.04 2.04 0 0 0-.129-.064 4.402 4.402 0 0 1-.112-.053.336.336 0 0 1-.052-.03h-.088l-.106.018-.129.023a3.28 3.28 0 0 0-.164.018.146.146 0 0 0-.058.024 7.98 7.98 0 0 0-.082.04 5.994 5.994 0 0 0-.082.047l-.047.024a1.316 1.316 0 0 1-.194.053c-.058.011-.109.05-.152.117-.008.011-.025.04-.053.088l-.052.088a.913.913 0 0 1-.082.123 1.07 1.07 0 0 0-.159.234.359.359 0 0 0-.029.147Zm-.885 1.43v-.112c.004-.02.008-.057.012-.111a19.463 19.463 0 0 1 .024-.346.393.393 0 0 1 .017-.111c.004-.07.014-.149.029-.235.02-.09.041-.18.065-.27a2.25 2.25 0 0 1 .094-.257c.035-.086.074-.16.117-.223l.023-.023a.43.43 0 0 1 .047-.041l.041-.041a.29.29 0 0 0 .029-.024c.004-.004.008-.015.012-.035l.024-.059a.614.614 0 0 0 .017-.052.943.943 0 0 1 .264-.316c.097-.075.197-.147.299-.218l.193-.117c.062-.039.123-.072.182-.1.062-.03.127-.058.193-.081.07-.024.148-.043.234-.059l.094-.006c.059-.004.125-.006.199-.006l.229-.011c.078-.004.14-.006.187-.006h.106c.129.031.25.068.363.111a1.43 1.43 0 0 1 .598.381c.086.086.164.19.234.31.004.008.01.032.018.07.008.036.015.054.023.054a.914.914 0 0 0 .082.158c.035.047.067.093.094.14a.6.6 0 0 1 .076.141c.02.047.029.102.029.164a.327.327 0 0 1-.093.217l-.141.158a4.881 4.881 0 0 1-.545.094 1.62 1.62 0 0 1-.176.012h-.105a7.796 7.796 0 0 0-.651-.024c-.078 0-.146.004-.205.012a.923.923 0 0 1-.111.012.96.96 0 0 0-.146.023 5.808 5.808 0 0 0-.159.018 2.23 2.23 0 0 1-.187.005h-.563a1.89 1.89 0 0 1-.181-.005c-.032.004-.053.015-.065.035a.27.27 0 0 0-.029.052l-.006.03v.498a1.063 1.063 0 0 0 .1.387c.058.136.127.275.205.416.082.14.168.271.258.392a.84.84 0 0 0 .257.234c.016.012.053.034.112.065l.187.1c.067.03.129.062.188.093l.129.059a.103.103 0 0 0 .041-.006.125.125 0 0 1 .041-.006c.078 0 .15.01.216.03.071.019.145.029.223.029h.088c.02 0 .041-.002.064-.006l.586-.305c.016-.047.036-.093.059-.14a.44.44 0 0 1 .199-.228.379.379 0 0 1 .17-.036h.006a.19.19 0 0 1 .029.04c.016.02.024.032.024.036 0 .008-.008.03-.024.065a4.957 4.957 0 0 1-.164.404 1.988 1.988 0 0 1-.176.304l-.041.042-.064.064-.07.07-.047.047a2.912 2.912 0 0 0-.047.024l-.07.04a.358.358 0 0 0-.065.042 1.539 1.539 0 0 1-.697.357c-.074.016-.16.024-.258.024-.258 0-.504-.03-.738-.088a2.291 2.291 0 0 1-.639-.276 1.881 1.881 0 0 1-.492-.469 1.822 1.822 0 0 1-.281-.68 1.742 1.742 0 0 1-.053-.193l-.059-.263-.052-.246-.03-.147v-.082Z"/><path stroke="#D65A69" d="M136.212 39.456c3-10 26.921 13.737 27.5 17.5 4 26-135.333-29.333-151-30-8.833-.833-15.1 27.7 2.5 34.5 22 8.5 29.5-61 54-36 19.6 20 6 41.5 30.5 36 22.333-9 36.5-32.456 19.5-36L9-9"/></g><defs><clipPath id="a"><path fill="#fff" d="M0 0h199v68H0z"/></clipPath></defs></svg>
